<mxfile host="app.diagrams.net" modified="2024-06-06T10:02:08.277Z" agent="Mozilla/5.0 (Windows NT 10.0; Win64; x64) AppleWebKit/537.36 (KHTML, like Gecko) Chrome/127.0.0.0 Safari/537.36" etag="-7ZATr_4S9cwpiu6hi_C" version="24.4.13" type="github">
  <diagram name="第 1 页" id="zGy9U_k5JigpqpLGjCzs">
    <mxGraphModel dx="819" dy="450" grid="1" gridSize="10" guides="1" tooltips="1" connect="1" arrows="1" fold="1" page="1" pageScale="1" pageWidth="827" pageHeight="1169" math="0" shadow="0">
      <root>
        <mxCell id="0" />
        <mxCell id="1" parent="0" />
        <mxCell id="Sv0Y8UL7mLzFVeA9ChIz-6" value="&lt;div style=&quot;background-color:#1e1f22;color:#bcbec4&quot;&gt;&lt;pre style=&quot;font-family:&#39;JetBrains Mono&#39;,monospace;font-size:11.3pt;&quot;&gt;&lt;div&gt;&lt;pre style=&quot;font-family:&#39;JetBrains Mono&#39;,monospace;font-size:11.3pt;&quot;&gt;PullMessageService &lt;span style=&quot;color:#cf8e6d;&quot;&gt;extends &lt;/span&gt;ServiceThread&lt;/pre&gt;&lt;/div&gt;&lt;/pre&gt;&lt;/div&gt;" style="text;strokeColor=none;fillColor=none;html=1;align=center;verticalAlign=middle;whiteSpace=wrap;rounded=0;fontSize=16;" vertex="1" parent="1">
          <mxGeometry x="30" y="250" width="320" height="20" as="geometry" />
        </mxCell>
        <mxCell id="Sv0Y8UL7mLzFVeA9ChIz-9" value="&lt;div style=&quot;background-color:#1e1f22;color:#bcbec4&quot;&gt;&lt;pre style=&quot;font-family:&#39;JetBrains Mono&#39;,monospace;font-size:11.3pt;&quot;&gt;&lt;span style=&quot;color:#c77dbb;&quot;&gt;pullRequestQueue&lt;/span&gt;&lt;/pre&gt;&lt;/div&gt;" style="text;strokeColor=none;fillColor=none;html=1;align=center;verticalAlign=middle;whiteSpace=wrap;rounded=0;fontSize=16;" vertex="1" parent="1">
          <mxGeometry x="60" y="280" width="60" height="30" as="geometry" />
        </mxCell>
        <mxCell id="Sv0Y8UL7mLzFVeA9ChIz-10" value="&lt;div style=&quot;background-color:#1e1f22;color:#bcbec4&quot;&gt;&lt;pre style=&quot;font-family:&#39;JetBrains Mono&#39;,monospace;font-size:11.3pt;&quot;&gt;DefaultMQPushConsumer&lt;/pre&gt;&lt;/div&gt;" style="text;whiteSpace=wrap;html=1;" vertex="1" parent="1">
          <mxGeometry x="40" y="400" width="200" height="70" as="geometry" />
        </mxCell>
        <UserObject label="org.apache.rocketmq.client.impl.MQClientManager#getOrCreateMQClientInstance(org.apache.rocketmq.client.ClientConfig, org.apache.rocketmq.remoting.RPCHook)" link="org.apache.rocketmq.client.impl.MQClientManager#getOrCreateMQClientInstance(org.apache.rocketmq.client.ClientConfig, org.apache.rocketmq.remoting.RPCHook)" id="Sv0Y8UL7mLzFVeA9ChIz-11">
          <mxCell style="text;whiteSpace=wrap;" vertex="1" parent="1">
            <mxGeometry x="10" y="500" width="560" height="50" as="geometry" />
          </mxCell>
        </UserObject>
        <mxCell id="Sv0Y8UL7mLzFVeA9ChIz-12" value="" style="shape=image;verticalLabelPosition=bottom;labelBackgroundColor=default;verticalAlign=top;aspect=fixed;imageAspect=0;image=data:image/png,iVBORw0KGgoAAAANSUhEUgAAAzAAAAEZCAIAAADHVlebAAAgAElEQVR4Aeyd+V8bR5735//YSMQgSxySEOEwYECcAXPr4g6Y+5bMYbDxDTaHuYwxYDC2uQw+wGAD5pCIjeVMDs84mZl9ZvfZ3ckku8nuzmxmMpP4+f3Z7uoulVrdjTiMBS6/+uVXqbvqW9/6dKvqrW9VF78QOjnjAyuAFcAKYAWwAlgBrABW4C0q8Iu3WDeuGiuAFcAKYAWwAlgBrABWQOjkjIEMBwixAlgBrABWACuAFcAKvGUFMJC95RuAfxZgBbACWAGsAFYAK4AVwECGgQwrgBXACmAFsAJYAazAW1YAA9lbvgH4NwFWACuAFcAKYAWwAlgBDGQYyLACWAGsAFYAK4AVwAq8ZQUwkL3lG4B/E2AFsAJYAawAVgArgBXAQIaBDCuAFcAKYAWwAlgBrMBbVgAD2Vu+Afg3AVYAK4AVwApgBbACWAEMZBjIsAJYAawAVgArgBXACrxlBTCQveUbgH8TYAWwAlgBrABWACuAFcBAhoEMK4AVwApgBbACWAGswFtWAAPZW74B+DcBVgArgBXACmAFsAJYAQxkGMiwAlgBrABWACuAFcAKvGUFMJC95RuAfxNgBbACWAGsAFYAK4AV2ASQiQ66pqSk6vX64uJiF5EEa4cVwApgBbACWAGsAFYAK7AjCmwCyEKUoe8fEOXnF+j1+uRk1QfevuCQe3rtiCvYCFYAK4AVwApgBbACWIF3UwF7gUwmUyi8vIVOzunpGXqbf+DSu6kgbjVWACuAFcAKYAWwAliBbSqwMZD5+Bz6wNs3MupDoZOzwsu7gO1fSkrqNv3AxbECWAGsAFYAK4AVwAq8swpsAGSBh4MBbHl94OMhlXPJFBISynUJn8cKYAWwAlgBrABWACuAFeBXYAMgKyggVoz5+B4SOjmHhkXAdWNoIkQZJpMpYDVSmddH2fnwI0h8lJ0vleGlZviNTqwAVgArgBXACmAFsAIsCmwAZImJSXq9/ujRXKf3XdzcpRUVFXD9WEVFhafC29VN6u4hOxwUAgnMReTa3TtYYaiFZyoMtd29gy4iV3gGJ7ACWAGsAFYAK4AVwApgBaACGwCZ6KBrWVmZXq8PDQ0XOjnHxsZDIIuNjRc6Obt7yIROzof8A0UHLbx1UOwGmQzQ2EGxG6wSJ7ACWAGsAFYAK4AVwApgBVAFNgAyoZNzeEQkufdYiYtI4uwiLikp0ev1JSUlzi5iF5GkuLhYKvMUOjmHKK2WkQEmu9o33N07iGkMVRynsQJYAawAVgArgBXACjAU2BjIZDIFiIrFxSeQ4BWm1+sBfsXGEQGzwsLCjIzM9PQMhumDYreq2pOYxhiy4I9YAawAVgArgBXACmAFGApsDGRgd369Xl9ZWenuIXd630WnS3F638XdXYYuKUOXkTHqwB+xAlgBrABWACuAFcAKYAV4FNgYyLKyPqqsrPzA29fVTersIvaQyr0+8BE6OQNQy8r6KCgoJPBwME8d+BJWACuAFcAKYAWwAlgBrACPAhsDmafCW6dLcXWTgkNJru738T0EYmZSZMMLnmrwJawAVgArgBXACmAFsAJYAS4FNgYyoZOz3NMLbjwWHh75/gHR0aO5er0+MTGJyy4+jxXACmAFsAJYAawAVgArYKcCdgEZastFJNFotHq9vrS0FN3qAs2D01gBrABWACuAFcAKYAWwAvYrsGkgs980zokVwApgBbACWAGsAFYAK2CPAr8Qu8rxgRVwcAVkWiU+sAL7TwEH/95h97ACWIHdVAADGebRPaDA/huJcYuwAjKtcjf7elwXVgAr4OAKYCDbAzji4M/QLriHB2+swL5UYBe+O7gKrABWYK8ogIEMA9keUGBfDsa4UViBvTJOYD+xAliBXVAAA9kewJFdeA4cvAo8cmMF9qUCDv69w+5hBbACu6kABjIMZHtAgX05GONGYQV2s6/HdWEFsAIOroAjAplIInNzk4slMgfXjtU9kUTu6q7Yo86ztsgRTuKR25EVkGqUUl24VBPiyE46pm+ML5fIXZ5yVFEcZm/Xh7tKhoCO8NFBhgAHcWPH78h+bRcQ6k0BWXZZ6avaGIUNVCXlFX7ZVQmOX1WGs96tQHXGp51lY2of1qv2nxRJUpoW1ldM86diiQ5OFH9xevXp0sLlJNIrkcQ7JOfitTsL80ur03eGT+VEu9PeiiSefuqTHWNzc0ummXtjF0sSPclLcWfnTR+/AMdKVz6rJ4eKhxfWTNeKd+b9KZEkPKX6TH6cL6Muv8pR6AlIDFYGM/Js9iNXXZu18ybyb2c0lWpSA07dDiqOYRiRasK99GNHrn+rGf+z6ro5XJ9qD1JINaGKsqGYga/V439RD72MPF4kf5MgwuU8oy3wo1RzLGrsZ+3kt+FFBB5Ji6eS7/yoHZvzI52UaqK8jk3GDZJNHnwRcSxLRjvP1S7fpm9S7v4/cGjbz8OK0ITX8Reaqb/EHdehJ7ec5mqy54mX0BOQiD+h3nItoCBXXds0a39x9MviFaN4NOX7n499Osn+Cl6S+EVcPVH4SUfFl12Vr9p0GXQ3JXaV71RXaU+3DP1BE47fVXJ5iLZiK2llYfPt+Xmj2fTxC+NStxa5KTs7BLD65jgj0b6UV+wq17YawcBqXHu28HCqozrV25X6mZTSZqIvrS/MTg80lYV5Upd41NC2Go3Dx7zJ50QkCSwbNs+3Ztre3N0GMi//4Izo0Izo0NaTFVxA5p+Utn65eDhpR4BscWz8yWhttNhVHl4/PXVrfI4GMqmq9cGa6XZzbXZ2cWXz1Pza/PlkusbQ4zdXn051N+RmFRSdvjVjWm7PChS7yj3DUrQpmdqUnNOjZi4g88sfmF1Z6soPsdV6C2dIpjTbwpZrUDLhSfnVmbXF9vJMbUrmkSDFFuyjRbjqQvO8rbT9I5xtTpJRXrMM3gW3Eyd/SGjtCzQ0hbT+VjP5T2EFobbFGWekR/sT7vyY3DEcZDgf3PipevK/YwwJjDw7+JHTeY6N2cj83yVe/z7xTJZMq/Q5989JfV+qaSCTl82opn5IaOkLPHZR2fJbzdQ3kaXRwFuudsnzDIcq6g9VNET0v+YCMkXNx+qJ/zxSs108ojwhmJLtfmWXEp7Ur6imvouprz9UUe+bHbFNqTcr7zarsy1u+UIFK1Ye+f6mW5GsoDp3cEkkkedVlL46n1odR3SbGVH+vsjYv1NdpT3dssVVdOtKh+8qxRwesjcHbRp3WiRRZHSuGR/0lWVlEf2wNg4MtMDmzg4BrH46zki0L+UFQGYcb80ghvvc/BOD06anw8cIihC7ylPaTPSl7KyK1psL5tnOPBCy4VHDAYCsJsYL6TvQB0sk8ayo4gQyNOd20iRhrLU1X5kfOuYtUepvL549fQVEyEQSeUbnxyvDVX4UsQaXDT9/0pkHphrD6h4YH7bFuxE9o0jie/Tq2mpvCRI/887v4wSy7ThsW5YfkkQx5+6uzdXHWPXgtkbsPMNfl51G3lA225HM/jNcg65v4x91gyPeVOgoJ2zwdXJj6YZmvc/+k+7WtJ+WjD9pjgR1/ajtaoFxpg2LbzYDl/Ncdsj8P0a3LGp6uz01GmX/dxEXFkGETKoJDbj8o/baVU+qyeqQaz9r288A5/nbJdVEBV3hBDIuZ7Z2nr/J0oKx5Kmvwwt2ZnqUv66t+b+pUuD7IpLIDB2+348rktyZ32WRxLf+RMV60c78wOP/em6hW3b8rpLfQ35BuK6KJKH6EfPsxVSuDLtzXiR5+yPRfpWX4KdBA8AskcRL2/rEON0UTdICAWT0JbGr3LtwaGlttNiX+ObyqLFjQEZOPsalp6UvtJR+cilvOCMY/hrIryx/VRUFSIXxZSZKVcempKYtNJd+cjHvRnowCmeMzPDx9ddlwwlNU14QPE+CkTwoOmG4ocDcVrZ+PvtaSrAPB+3BUoAwOotLriwOZPlX9M93aXP7jGSETCRRGkbM0+e1MHP8+QXjyPFDpE1tq8k4dAzOtyqis7N1R2R0dVxfA3Qa8cFZNbRMOq8Iyjh3dWJ+fsU0c2eoPj3MlbZG3t3jKTU3phZM83P3O6u1oF5RWvfSmpkxL2kcOxFIFyTMsgEZl0Eiv1tExrnhO49My6b1hbkHV+rTKR7lrUvkGpxcc3V4enlhxTRzb7SpOFFO+8BXl0QRkHKqa+zRoyXT7IPxFoMGPgAiCacaqGhomph908T7nTIl3vpBM/aHuLOnlb2vNa31YPCTaiK8DOTk48Rf1YMvwg0pADKk+kXt1GvGPJduYNBLEyLVhAZ2/KzrvEjl1IQGdr7WdjRSHw3L2qkXIeU34m78STP+XVLnDb90igD8237QEaxDffQsOBlYkQNmLaXcpbg8JNqlVR06vZIw/F+aiR/UN15G0XOgPM6TanA0mQwvxRxvjh1/GpjVFju64F9l0pERMqlGp+x/ndxUCYnBr+nfdf0DCrItPO0iq2MHMnQaUdVUDi3zeCjTKgPa/qrrHfA//SJ57K+a27+POaWnGJH7fkHLrEDGZZCUNy2g6UXSyA/ayZ80I78/cq7Wnrq4bgqP82STwxUVt44M/JGYzr7xZXRDBXxOuB4A8JCLpJ4Pn/guFVnRmMhVLpN5ymWHTjdUrJeEyom0p1wql5DfPp6ukuyxY7MyMpZaSz+5mHsjPQj22CKJd0pGyvSFkk8vlz49l92tCqB+2ZM//bm6ZfSbyEg7flfJ46FI4hWc1USvWhk6lRnptlHPJnJVSD19ZZ7RVWPm2eYsGZH2lXl6gZvCOwT4x1X1jT00LS7OXqvLPTbIPmPFkFfE3YuSwwo7kPG6wdn3cnXm/CPRnpaXoTb6EQUygrrKbxtN/ZnkrCUpFMVqxF2IOju1Ri2L4lGDB8jQ53DjKUvi630hb6QyrjguvCo/29xZ0hvjCVzfAMjOo6WKe6OpUuSTxB4hc/MNJCc0o66dr2AAmVtw4kJ76UJFfElcREVWuqmjdFxFzzByxJYBkF3JV5YMLre19j/uLvAqHKKBLPzYmBnFpriz8xB3GIqj94nna0BNI6aUtdy3six2lbvGnp80rd66WJOdVVRxcXLeNF13hFKDqGt6urfr5NHsworWuwtryy1pxIox0aHElMzctMyGvifm8ZbyNCKdm5YcJaW7DCIPF5CxGRS7yv3Kbi0bp1v1BSkp2dnHrt01rl3JJ6Zi+evyK729tHSv2VCSlp6bV903ZVxo0lLKczlPNDnm7Lhxbbzj5NGs/IL66w9Mpr7iUKAkjxoMqeFHmVYp1y+op/4noflqoOFiaPtnybctQCYrHE+a+nNCy7VAQ5Oy5TeayX8JKwwjBsjM4gDD6QDDcNzY68TWVjJ9OqA0U04AWVhQ12tdZxMc6QM7X+u6mhEg+zqhYz6k6mzgiZmEsdeqlhpwiRz7u1jXjZFAxl6Ky0OZVqmo+0w7/n+iTjb7G04HnTYl3/kuqpyYRuRxnvCZq8kkkMXWaIJ7/xTduqbuOO9ZY6aBLFU58BrFJt+mbwCe0pzB3i4SNdiBTAamEStao4etLPN4SNU1/H9j24eCjjWGtP6jZuq/oiuPbNxkcpaWE8jYDBLy1n+mvfMv0ScvBFSeDDxlTJr8a2wNMcXMLy/XTeFxnrBZOJI4+dfEy0NBhnPBZ9dVkz/EHU+hHjCO+wWecFG44uWKT0+0NZAFJi51EuvG0AOuIePpKkGPPVYZXxIfcbwk91Oix6bWM/hrsl625famRuYcCS9LT13qKOqOsix12AKQOX5XyeOhW/zFu6bV4abqrKzC8qaJx6aHDXGUGlw9myjyzOSaze9keg0ZzxAgS+2aXTPevFiVlVVs6Lx1b84uIOPpRR1kJNrT8sLxxTbBALKY03PG+cuJ5ODLaLJrWvf82p2KQOLLy7iEmiUM3jweQBF8mP6m5QFAn0P7gKxJnUSyoUjic/JkxfMiasX6BkBmXQqNuvN/80US34YGJpAl5xe9OpsURSoiksizy0pe1cbAX35oy2EaANnVQt+AYxMrpqdXCw95Fg+/OSAD9YokTNQTu8pVF5eNt2rp6VGl/rZ57mIayE/cwtm2BHKqQuSa0PDAPNOYwmiC7Royqi4uIOMwSLgxXA0iiyKJb4g6VxNFABlljXgHgm29mmeAt5e3xN2H/C0YYbhlfnCOiv/xOB93fsE4dS6cemwUKW2rxiEDCP7xqAGdYSRkWuWh5v/WDdzwAtNt2vKIWxYgO9TyX7q+PhDpkRLzdK/VLdWQtFinpewBsvAC6g9o+l74g274jg9Z9YZAxlqKx0NpaoJnWpRMFyVPjZGnpoX2WZENq/OEGhxNBvlja2MUDV9pJ388UhMrP/7iDQIZgCQNE/V4PKSY5vbDQ2DaV1sYfuO1+pKB/35ZrrJNWRI3hcMgIdS1Xioqpon2Kjt9KN+y5o9LXp6bwlOX38VvdUNjPtR0dnhA2590V6lgKtf9or56cV7/uOJ9KdgayKS+ceFB6vDwjjMVLwxH1EQ6SB3qByP35JDM0lUSQHZRraZWXAQ0n694Wki98eMm9fKVeUpcyWCbzO9kfYUp3zIRwd8tM76S4CPPCMRDDFSrd6Wr5PEw+dKmu2WRPCw6SRuflHd+yvy4pyqeSGvjE6KsA40sQwBR13hDEBi/3NTnHlrGY1ZhwUmeXhTLi+q2NXlRC4w0wU83ag55+soUgcHaU0OL5umLaWBei3iiwCVPf7/ogqY7T5dGjgezsRpqE74lAGe94KJ+9Dm0D8hqLavBCvTlrwyRIEK7AZBxlCKfJPYIGWiALZCJJPIiQ8UrQ+SmtpMAQHat+JBIWXyu41yKn+ytAJlI4lswYH7cmkPHt31TWleMA5VgDpS4u/T0qEjiUzBgXu60vL8JmrBpIOMwSETIVh521BtyMlJjQgPhtCktOzuQiQ6ln7j+aMFk+V240JYNinA5TxBzj9nYU2x7v/jVQJ9gNC3VhKIBLakmPvgqBWRSTXRwz2t1WwMJNDHy1BhiIOy5DINYrIOuHUD2IiiFnpc8btaMzB6yC8hYSvF7KM2sDe/5owaZWtW0nbTwB9sKd8LglZ/VrUiTW/9bd6WNjPwdixr9Oe54rPRoU0TbaEBGCAFko7N+RFAwVdn/s6rRMrFIrKLrvw4YN6D1L7qrnVA06ABIEGvIun/WXj7HOE9fZVrm8ZAAMqKuLghJwdaWifs1+jPLSxhUhGw0efIPjDVkPAYV9Z/qxv8l5mxnoKHK92giCHPCVnDVRdyUK19rJn9OmXoNDk0rdVO46qImwTuabN/V5VGD+urFKn637H3RGsioSxKf+hPlHxewryETSXxPniw35lqgSuwq/6i05Ff0j1WRRFFeVf55BfU+u8hL2Vid/0l7+a87K8DxSanlfXCRxLP8WPkXFWHoV48/rWs1rl7XoziC5hdJvPOurS935qEnYVokCTOMrt8/o0LO+Ob3rz9qyYZdpa5lebW/AnSVRF2D1I86kcQnv399qcNiWSTRNc6vX69gvmzO5aFIQtQ13/oRrF3barS7LqX+9vpMow6WRRNs7fLM6VlfvVIIsokk/sWD649bMtBStmmRRP7RlfXVK0W2vShtB8tLRBNEkq3Iays4ekbTsmpcew6OVdPTh8On47yo30u6ViO8ZFx7/ni8PVNJBVa5Hjaxq1zTsro6dlGXqIkjjo9Oj1EPAOM5tBfI4M8yAsIMkWAs3xDIWEttCchkJQSQRaCSbZgGNNNX7A9zviUg8y8ZtNAM9cYsvSoQ/QFnuzpti0BGG2cYFLmHpzf035hamDcSj9r8REdqgOVHOWtdIolf1hWTce5GVXZ6AvFzMPPUmNkKyNjqEkk8j/aajT1FUHmYEEn41IDZGAkGP0k1ccH0GjKQZi4U67XMvm0fyOD4TUV3EOPoJbCGDGIcvMTjoVRzJLDjB93Ii9BjNYdK9H4l9REDr+0AsrjgqxZWAMQAcAoQRtzxOFj7WwIyTg9pIKPgj4l6GqVUbYgc/SmuXiXTKG0Paf5o0uS/heWHoJcCWn/QXu2Uq4mTUnVkUPdPmsvnQAapJiXgnDHu+h/VEz9pJ/+uHngUkGkpy1qXVB0T2P5n7e3nSkP1oeJKv+K68P6f1K0ngEGuuqTq0KDOn8hliEy3perY4Ks/6aZ+Rg/gMHjORTsOZDXRoO9FGUskURRUlvzqYvqpOKUqLEgVpmw+We5gQOZffH0dHe2Ma88h8KGjnS3qbR7IiLpQKiKGTBouN6pr80B21RrIrKtmdHfUUyHxzEFK2eaxFQHNw8aFWF5qOggVijVNPAyjTZpETaJhcN44qQ+xDJTEs0FeiktIDg8JcKW3wxC7ytHHhmGWMHjDAOb0RJLA0hsQyKyeQ3uBDK7IRiNkuZXlr6qjwc8XkURRUV3xkt5ajFxYyh5X2xKQ2UTI3OTubjKunw5AC14gY1vUP1rnTwYeGUvzvGKOHk2J3XBRP10pM15NxYRgfBtEuSODQZRxN4EMPiIiNx+/I+UdM+bp8xrLSbYpS5Eks2XJPFIdSbcusOyGPUBmEyFzV7i7e4olMn41oDOMBElCf4ETQFJNdtigdYSs86ofATT0ka+GsRAOINt4Ub8tWsm0Subi98JTQZW56KJ+21JUhIzNQ6mmLnr8dcKpDMBPUk1CSK8NkIFwEUInUvWHwVd+UnX0+BG4QB95Kpk6BBBGbG0s5BV5rVk7OutHXNIq+35KaqyAl/wav9H29StIjvFv/bP2apcnmZZplJ4FDUEVRwHi2FIOtAASUnWKsv+n5MYyeJ7HQ5lGycU0tLWdBDKLS5oPPQtaom/+lNxUbjnJBn9S9fEPx36Kb0in/YkPuWoPkCkDO37SdjRJaQ2lmnCZNlRKKM95v6iv1Yeev17ybg+TionO3eoQSbzJCFkw4zz4SK4hKV/NPYxeJSJkNdGeEsKaSCKng14ykSSkp6V8hliiSlQhknxQVQuAjKoRzYwa5ElrmldXrhtAXWJXmSI6J0d3REpWDarI6wVxLKtG0Q6EGUbW7xERMuiAT37f+lz3MTKKAGIJmriIIAlpUNeyujKgl1Pt+oBhWSTRXXi8PlARBK2BBJeHRIytb/1xy0cwv7ZldaWvAji/UV0h+lvr0xd0sCyaIEjIul1iVxlhkKA9cFM+rJ1Yf9ScgZayTYskso+611e6i8S0nmJ3T3d3OfwokjBFQI3YugGajOVFVeJKa5pXwMMmcks6fX/93nmtK30X0GeDUZzrYRO7ygiDQ4YPqAcgoHSIegAYz6F9QMaxGizuaMGrC6p4MC/uGth6oWIpJwB0MQSQWZeCK89IIJMVGcp/ZYgAUMIYfW2nLMWucnINWSJ471QkkeeUExvPQkxkWKC6OZIwOCJkzG0vyoefL/cUg7dsyJdXW+Ost72AL+CIJJ7ZPc9Xe9gjyVxryJb7ymhy9fSLTkmMoBZvbQRk2guPzcMGajk8o5mci/rZo1byqMJLZ4oSAcWSG388W+0phrdAJGGpSyRJaZw3j9UdoSSVZbY83hjIxK5yxuqH1HbiLWLwq111cZlLDUYD4Udqdfbkv0RVFSgyUnzrF5PGrdeQdbdSVKQJUxQc88tLhCEiqcYQOfo6/iS9vJrewcu38Rvd4G3WbS+4Yl0yrdJ6e4gYdNsLnlLEEiI2D6UaQ9To68SzRykgS6mPHn0NZ8fI1fSGiJGf4k7oLAxBTD6G+F36TtvZLFMHSzUhHupQz3yDb24CmTZEjvw9tjZWSmYjps9qzdqRh77qYA+10r/1B83VK3KqlCrk6t807Y1S8uMHZ/5RO3zfVwMMRh/u+EHTcQlcAlUEtP9N034BnoH2yaspIX1/T75Qhp7k8lCqCfFv+R9tTwftfOThrr9r2s7Csh5qfcTtv8ed0MEzaMIjfyTpzr+G5RN+woPLoIc6xLtmKry2CLjtoQ7xb/0LbDLpOUtdHmp95O2/J5zJAfY9dHUf3v67uuUE+MhVl1QT4tv4tfb6iDelYbh/y39rezqA2lxqgA5d5Om5+MTn/kes1LKDQBbUcbH8UeYhqlJ35dWLDCCTFurLvtCHAwBiDDasH0OP31uZbo51A5zhk3PFSPaiFFkSk27dz5a7CyFDoEZsiUHsKktufPKktxRQkUgi9/1QlxAeAEqhA6Eti4gkmnNz60N6JVqF2FXG42FS4+LKcI0vNUYGVwyvk+t3ibuwUV2bBjLf0uEnqw8ac+J8fZVHyrom5jcGMrGrLPbs45U7Z8NcgbyeKW0EJUD8xfLCe701eWFx2wQEMrGrzL9yZGnxeo439VSjzwajIM/DxgVkYlcZ+hzaB2Tn80YqLG9ZXqPfspQEJsy3l86XxRXFRZ6syPu842hDIBUSJICsMX8cKQXfzQSjbERG7q9asi4khJGvVSojPYkfc4Eh5OaH0cRbluuGWLCFbAw5d+sWkrjQQb1lWZ6VYeooHbPvLUtWIBO7ymVqemPYLLAx7FJLmh9FAGHHbxmf3uk6mZuVX9gwPGNavpxJgSbIEFp7d3VhpC43m9wnNi3URyaSeB6KJTZo1ZJvWc721JDpzIhDRKiTfK/wycAZQ1ZGXn5t39TqWh+9lf9GQBZcdmN9eawtP4t8yzIhDPATz8awPAZDa+6uLN+7WEm8ZZlVcXl0aX2kmtrsjqRklrpEEt+Uy0vGxTvnywsycqvODI3euW8XkLkeOTthWhvvOHE0Kz+/fvCByXTN6i1LdjUggTESBJroCkKufKudeq2b+lndezvimgXIiFcOJ7+La+wONJwJOmNKvvPXuOMaBMjUIb0/aQceBhFvXJ4OKE6lgmcFtxOJXVKvBRoayXcz/xluDMuDVrLcgYQ7Pya1DxEbw57/RIVsDMtXisNDqSYmoO0/dWO/iaw/H1B1JeLqF0k3fqaAjAyJSdUkNvXPHNaf8tef8i9KoZCoYDRx4tvY850B+tOHT68mjf9PbK2aH8gIOCt9kHznT/GXegP0jSGXvlLf+TVaGS4AACAASURBVI8PK2MorDnaFz/+Q2Lb9cP6s0FnzckT30fr4yHxSDUhH5z+rWbks9Bj9X7ldX7lVR+kEYSnKKwjPzZ/OPR3VftVMl3nnUHSEoeHdgCZKrjnR03fNLPJH5UQ9uuWku98G11H1OvzEfH3mvgNfnDqN5qx30bWn/UvPxFQ/zBh9G/xDR/BdnmokboqG/wLCXk91NH+Lf+uvf0q4vhZf0NXeM9niUN/U7fU03X92Zom/2ahyfxbieN/TmgdOFx55vDpp8nj/32kmsbK/JHE8W+I+1V56vCplaSxP8fWEPfroER2UCJzEcvODPj82zXPw2IpOAP/dxF719WXreUHwzMgf0CwMv1DZfqHkVfPln1ceYRMK6MVRPGPSopfVkd7kqZcxPIyQ9nn5WFkKflHpYUvm7PbNGFH42Naaj6aP1v2okSJWg5Pz/n8Uua5+FDSYEiEnOkPmplIh9YML5vGOupzMnPzTwzdX1lszfBH8yir7yw9ulmb85FGl6HRpSq9pS5iud+RDPJjyaWpZ9PdVWQ6I9yPqEty5Oz4ynzfqcrM9KO51b0TS6u9hZRKupaV5YFKOdWuD3J7nz3pyIV1uYiDSgY/XrzdkpuZk5qRkxofKgZicnsoiT0/sfJk6LwhMzOv5PzI7MqD+iOewOBGdYVU3nz24IIO1g7k5WmXi1tsSd+jxdVny6tPZwYazgw9m2vOQIuzpiUxp0dXVkcu12Vn5uYeH7i7snK10Op+YXnBY7OhvC4B1cOrz27XRLPqbHtS07xsedjkOZcfP71dEwOyoc8GsyD3w0YYHNJ/QD29ASXIA4A+h/YBWU1senrGk5bSX5L7kMENwEQSeXBM0sjpohdtJaZTaeeifeA6cXLKMi47I2PJphQYa0XSgOrK3Kdt5cTfA+ks7oggmEZfw3zN+8uuysF4gmlEEnlITOLNhsIXbaXPL2xiHzIuILP86SSj2bhmGqxJRCYlPQ9pGzrJPbQeIn86CVKCSB5f1nl3Zmmd+LsZa8vnVcRMXOGAGb5AARMd2cB5RVDG+at3FuZXTHMPxloM1GZjjBdlGUu+QHXu0YaOiaUn5Jp6+CoAutMMqAsu/OcBMpE05ujFW1NgH7JHDweaipXWG1Gy1iXy0Ri6704vri3MTl0u15YN2AVkIokiMO1s99jjx8umOZZ9yNjVgAozEvSMXoTn0QLffI1cmxiCABm5ydM48UeQJv6qvvHr6JPUvlaQyWQFXTHX/xPsSabraadjaRFehonY6/+umfif5OsvIgzplllOckcx28lHMmQVqii/EUPtNWX1p5N4gIzHQ2l6RWj775LH/qK+9VX0cX3IFcvsGMUN+R3R/f+hufN33eRP2u42OrAUrqgcien/g3r0z6rBLz6sr6DjXvrI23+LrUEiZDXPtbdnfKmoWKRCPxE78LV67G/aiT/HNRQAayTJKT1LB6P7/k018ifV4GcRNZZLwA0PXV5w229UIz/q7vxdO/F9RAkBLkHdf9Pd+TvjiNaDMBu7hyQ/cTMNiHvldUT3/7tmgjAOmyyv+4xRUVydakNI8tBmH774SdLNP2nG/6q++c+xTY0faK2ia1K2ujzSypSXf5M88j/qm19G11YGd9sBZOoQD1WYovxmzLV/Sx79U/Lgyw9PlMlVweSUZYiHilSj7w+q0T8lX/+cuF/kJdihyxIULxd8Vqvl3hIrBgJAZmICmbyiquxleznj6I8jymaVFH9hDWSfkUBGQIM8qL4iZ/VSCdGFqoOqqsrM1kDm4uF/rDzH2Fz6sr38i8uFbeFWzkBvYYKgK/WJy7cfPpxffjB5+0JRPAAmSwZZXMnlO/fn15ZXny2tLJxJkrqIffKvPV0m0MTqaMsi6nIRex5OO9M9Nje7uDxz9/bFSjUgy4MSmbZ5eakfAbKrTxfbLUB2UCJz+7CybXT+8TJhfOlauZRGUi4PXcSKoPRzV8bmZheW7o0NnEyPcAUMt1FdLuKQyptPH5zXwmaSnvO1CzTNMzj2w4gQqSSgZPDp7KV0tDhr2kXsGZByuuP27OzC8szdkYuVKgXtIcjvguUlH5sN5XXRtM2uLDdqiN8/9hzqS0vIwyaLaZhZmr2cLCUeUfQ5ZJji+ToQBgcRIEMeAPQ5tBPINpgcZAyfe+ujyJOYhnvQqIM0ubf8fxe8taAVtc9CbtiN18kXShjn9+pHZH0YtW4JmY+jsAyeIdYkbffw0B3/8NaPSY2VUpoYtm8TW9iCArBDdxFLo44qvnjk87sbimrlBhgES+HEXlTARRxTM/HxxMmEvei84/vMKq9fxa2llRsF3o7+zbIPyNj+TPh+4oAgw/iycbyM7bXz/dTMvdsWQFqeeVXEXzOsPB3c9FI99e+RZVF7lcDodWyU/9ZAxiQwgGLbhjAGLijqvlCPfhH8ERXCYVzFH3dHAcbwJguSn2lQnIlx9GGD4Tb+aI8CnmE6tTZdrc3OPXVrZnn2dNIH9pTCeexUgF/e5KaFJ5Nnw63ji3Za3s1sGMjIjUxkaRfnzA/bsuGs5d5ll33pOQAXv0vfp9z9f7rJH9U3v4quLwYzj3ubyTZEMRYOCyaWkW378NAaIm78JflSnUwVtH1rFguqYCLqhg/7FNjNvp67LulBYp4UH29Wgfizc4tLawuLyw8mbzUWxUnFHljzHVSAR14X8eGSAdNca47E4TXfGMj25QCPG7W3FNjb1MWIh8GPm6MxEsLsG+Y9VMH42BMKHBRLt3+IxFJ8YAWwAvtAAQxk9u4Ut7cIZp95u++BjDlNaRUYs6CYBTKSgzzwsfcV2AdDCG4CVgArsFMKYCDDQLYHFNiHQIaEx7hpjEIxisP2Pn+8cYhMCvLYU4dI7IEPrABWACsAFMBAtgdwZJ+Fu7bQnHcIyCyxMWIlFjuKbcQc7kmH8bEnFBAd9MDHu6aAy0EPfGAFWBX4hdDJ2faQx3jZnsRnsAJYgTemwAGh0wGBkPV430UkUXj5HQoICQ2PjoiKxQdWACuAFcAK7D8FMJCx8OgbG3RxXVgBLgVYUeyAQPi+VP5BaERMSGhUUEhEYHBYwOFQfGAFsAJYAazA/lMAAxnXAInPYwV2TQFOGvM9dDg0PPpwUPj+63pwi7ACWAGsAFYAVQAD2a4NurgirAC7AlwzlURsLDwa/briNFYAK4AVwArsVwUwkLGPkXjWEiuwKwpwxsZcRJLQiBgcG9uvPS9uF1YAK4AVYCiAgQwDGVbgbSnAtZD//fcE7yu8/EJCoxhfV/wRK4AVwApgBfarAu8EkAmEzgdcxELhgV2JeWxldHd8Dx1Euv0llCU89p7gwPvOBwWC98npSwLIDgUEB4VE7Nd+B7cLK4AVwApgBRgKOBaQCYTigKzG/qmlJ6ummYmB47pDBxCKEgj9VYYTOVHum4UDr7zBhTXT1Ty/zRbckfxRpx6bPn4BjpWOLFabO+shl1CepbegJyBxvdTb1h+BUF4wYF5oSbG99EbPOI5QAqGLZ0Lt5ZHZ2SXTzN3bjQVRrshzuHUR/LMbhx89Wl5fNT1fXmhLEgL8IrDMM+fawyeLHdk+7wkIGntP8H5oeDR+p5LRW+GPWAGsAFZgHyvgWEDmfOTCfZPxVpM+PfVoZdv0E+N0TbgLHP8EwsQL82ZWhoB5WBOKnGuzK086cnxYr77pk66BSckqbbIq9eRtMxeQ7ayHXEI5+8YQnhR3z6wttBVrk1XaCF+RbfPfFpA5jlDCAMPw6tPJzuNZqdl5J27MmJba0jxthdrUGYFQnHLZtHK3uyhFm5SsSUoMkyJAJs/qvvt49lLmBxDIIqJi93G/g5uGFcAKYAWwAgwFHAvIYs8vGsdq/chohMAp6sR98/1TsXDY4+IMmMGREwKhJKeXE8h21nN+oQRhp+6uzdaGcU7gvi0gAyI4glBB1feMMxdjDhASCYTumVfWVnvyXLYXJBMI/Upvrs+cS6TvtWW+EnnLkgqPvSd4HwMZo6vCH7ECWAGswP5WwLGALPHiivF6uTsAMqGzi5vCXSImBkVN+9KamTHdZhyt8QU5U7pW1gaKkmp7764sLi6MdtVGyyjaQCfpULYTOjmrWkzGgWOqY9cnF0zzs3fbDQmgXnIMlkfre0ZnjIsLM1er0/UD5vlmLT2Oci4REwjFPqq6jpG5uSXT7P2xS+VxUmQI5+IMHg8FQpGf7lTP+OPHK8QEbq3WMoHL5Ty/UBTxsAGZQCiPMVwdnTUuzD/oLFeV2jdleUDkLpZYHyKWkBtDOscXKrnZCJ9DoZOze2hKerJSTD2W4kOpZ69OzM8vrTyYGDiRGuhM32VVs3G1/5jq2MCdeePjh1OX6SdK4CQSESqF6G+tz1zQiiXuB8VuB8UHheSKMXnR0OLS2uKSaeGJafT4hzhCtr87XNw6rABWACvApYBjAZlbes+8aa6tOMFbbMU9As8odUq6NuV47xPz2MVCLZFO18YFiyxA9vB2Z1tpZkZa6cWbC+bpJhUYJqlJOlXBxXtWwTYKyB5MX+2ozUzLLm2eXFhbuqShVqeJ1Zdn11aHL1SmpR6tvDx8b9YuIDsQdnLMuDbWVpuZmplb23/fZOrNt6xa4wIyHg+dI0/dMa3cvKBPT80pvTAxb5quCadwhwAyNuf5heIBMrLJS9dPl5FNHhi7v/EaMoHQPa/fhpL7iwG4MCAM/ej4QpG8W+pGkxbqvHP0uSnTyo3z+vTU7JLzY3PGB/VR9E1pNq7ef9DTTj5Rl+7Mm55cJJ8ogfLEhGnduPZ81UQdK8b15YW2RBLIDvh8mJCoSkg8enbMiIGMq5/C57ECWAGswL5XwLGATODkq71wb8FkNq4s3O65kBfthb4ayTUTJyAiZA9rwyiGC6ufMd4/o0RGU4HQXz/KBmQPL8U4k9NSTpH1980z55LA0BvfuGQcq6XCbwdiT8/YBWTRZ+aNkw3BTmCeS6xqWTFeL0OibnxTlqwexl9YMt40KAB0Cn3Lb5rnLiQDDwli4HCejPDxLbZjnbIk6rp1zAvUdSDuzIw9QOYsD0mIOWJ9hHijtwxFGZh2fKF4gIx4NtCbMvx89jx9U5qNqzMXLU/UvefT5BMlEB8KjYmPjkk/M7E+21ERTaTjo6ODXKl3Kom5y/cEfqVDKJA54SnLfd/54gZiBbACWAFUAccCMhImnN2DtblVl3rurKyuTp+MdYUDOS+QXc8WU9OU0ryBhbmWeHuAzDI96prbZ15uzyQdcMm8YjZ254B6iQVV1zcGMoHQOb3LbOw6yoUjXBEyuhYmMgqEbrl95kfNqXBOUN28YuwrAvEnghjYnKetbQ7IBEKiySud2XRxoslv6C3LPSEUF5CBm4Iqk9xsXL1G35Rm4+oAnHB3zb32fOky8UTRqvqVDa9Pn00gPzJ3IMNAhvZKOI0VwApgBd5BBRwOyCwD2IHAsqGPl/uLkSATO2eQEbKBTBEFZNACTLDGn9BBF6UlgVCU2WMNZHasIWOUglXDBFoFPAkTth6ClfXMZXMD1Dwal/PAIBe5Uldt1pAB5+EboPYv6t/CGrI9IRQqL7xHYHFhgfXDkHxpZbWfvinEGjIqTdzuq8+X2y27nAiEuwdk/oE5Pb/87o/ffv/Hb7//eqYB7dfSel9S5385kBaoRC/xp/0DG6a/+e7rb172ZGyiFMMmbeRRzWaqZhjZ8GPNDNV2ovn2NdO/7hGQhVW0DWvcZoYt3K8N22jbIlp84g76Zwy82PbdZLQauPSiN4dx3pE/AuXRp3r3dQP62Na7Hd2gta9/OZCa3r+de40+nPA7Ml1HdQK2V1ExeZrG+rSwntyUDuhDDgtST7t9XQEsBRPhqQZDTYO+2qCN2nrXB63xJxwIyARCRUR6oUpp2WbMp2LMOH0+go51cXHGzgIZtbyMnm0UCEOqJ7YUIXMWubiIYMBs80BGRsi6Kq3mBJXeTqQaKDHYWuYSihvIthIh29oaMpYImeMJxVjULw1Ly1SFioUHNo6QOSCQfWOhH7T33JBUGL0Ya0/H37nYXqWNWFyyzWP/GYaHAYdDgX04bFB0xQuRqCawIINi7XeJkdPWQ0YG8BH14euN7teGbUStoS2ixd8ZILNt2jZHU1uDrFrt7Enw+wTgxdvSjaveLbcUKEk9/G8GyP747fd8otHfOJ6msT4trCc3pQP6kKMFAaFu4deCf1R24a6gGPDWoYDMr+yW+VFbGrVUXyhJbl6E63XI+ETCucfmoXLLSnmKMMi3LHcqQiZ0clYUDS+ZphszIhRyv6jijjuLGwOZ0MmZXBp1il5DJtK0rRoHSpHwnii96/lqdw5ENOvQC3PKUujkHH9habm3gH65T6QITTwSrAClNgIydqG4gIyoq3GX15A5tFDkthdN0dbbXoDXROIuPDHeNHiCxXZCn7Lh5w/PU0sPybcsHShC9vU3L1+QcTLLz1kyLgJ7av4IGejCILdx9XRor7dhmjayQ0BGhrWghwGHQ0GHDpkGVMcfJwNF4ABDUZ11WHHDdnFlYGjImY2MaNp5v2zaSEVDoQ5cLaLF31aMEzbBtmmg3i2MecCmrUFY1xtKUILQgZO3q9sOPoE7qySEKnBn4UfwowV+pK8ScfQ/fvs9+MglKfyqMp6WbT5C8CcZS5SO/optNsDvn1isry6Oe5MRffTxdiAgEzo5e+VdnzctDpypSE/Lzj95Y8ZkvJprwS+B0Lto8NnS2KWcNPIty5hDIFzEFSETCF28IojtT5PJtyxnu/VkWhviSUxu8jCNwCW8uG9+ec1sXHs+O1B/esguIHMOPzluWhtrq8lMyzxaO3DfZGT8bYDAY5Or87dqMlNIN5IDZQf4PSTfslzsbyhL02XkHOuZXF3rzfe1D8jYheLZGFasuTy3tnT9VFla2tGKy4OT029qDZnQydnxhRIGGm6uPp3oqM1KzcqrH5w2LbWlyoHyzlFnJk0rg+cq09Oyi8+Nzhkf1EUib1naHSEDe4+9J3D2DFNRb1mOrt5pKYmLT4qNSwzwEG5nUT/oJb/+5uX0DDFBCeM9VDxghpieg+M37ByJk/RPW9iTUvQ204AM5zQB0JlBhwInQ9EayS7SMn86XQfmPVmADPbspA/M6VHoD5+HNG5CACVqR+bmLE2oIyfs6OABOhbCztE2M+BXW09QAUkNqdbBnFBDYByeh22x/37B4AdnG9lEAPVaWpShRNPcXsG7wLzjsAlo08BJdGAmG8gsC0dNUBaIz2OQqoIOHCKes1gOOByKPodwvIf2oeaEGyTQUw6/Jd1Ybyh8CBnNgV9kHhFgS+GtQTITM278XzS0avqxoXRmiMkKZPC78PVMA3/T0KcFVmp7Er2bsPkgP+sltLGWlpLMjd5uWCNMgHlJQ00DMTuZqwHnrU6WZofbYJlVBrqUf6Amq/pkViLxP4S5uNyTlPHS7LhUg97Gmn9grLb0pGMBmUAoDy9s7p+cn18m/2RNcQyMMIHh0CW09PL4kycmYrcFI73DAjeQsezLYPr4RVvaBkBGRuNE7ofCw5S+YidFsX1AJhCKfTUnO8cePVo2zdnsQ0bYFEcUtU/OLK0Tzq8tn40/wDrrBz2k9iGbmJ9fMc3dH7lUbtkpjYcmeYRC9zxj/OkkgdAz5ljv6JxpcX66x5BSYd8+ZKCuzf7v+EIRoJxU205uKffQ+k8nCYRiv9QzxOZwSysPxvtt9iGzN0JGA5lbTs8a2IdsftH4eGFl7vHy7KMnZ1U7A2Q9gDzIwYwe9R/VWAeWmD04mZl5EgEyEHWjunub6AIcZQHwwT4RnkeRBfaGHNmoWA7TGS4PQbvokRsYh5an6ywUAppALK85TrKpdRG6IIUjMHNaoJLVE1gFbCNoOzMzGXVjniSrBhYIVtjoflHBD2uHoQNEG9lEYLSIWENmvSKQwysrBdA7zsyPNI0BZLZPC6gaasUFZLBRMCf9RHF6BWkAFgHOML2l1QPnqam3t6Qbz/2ybQ7x3QFsQd8+W3mZjUW+ueR9p+gKSkR+H/mCpvBGoHcWxsB4rm62adAlBvnB87D59ijTk6EExAYUs/w2o7ss2PkEHA6Ny7WQE8ApyGQ8ETKuUpQFJK5mlTOxmGA+GyALTy3WRikdC8g2O7TvQn6BMLRmynz3RMwu1IWreGcU2GCb/vcE29r2AvaS03VU/0sM1SBWNNNAdZSgZ6cCSFRQB3RhVM9rzW1wHKV+GVMDGMuCJKoiMn6GpuHPfTilCPtE4BKMVFE9qZWFjT1k9L80hVh+3zOaYPGHrY+2zUy3hcUTS0OokZLKg0ptGRJoIIBq23+/NmwjawZaChjxsgIyrnZBBayeBzosymgaHCPZh22Wp4WSyCKd9fMGz5NBHeA5UYTHK9AQ+BT5B+bU1OVwt454MGDA7G3pxlcv9d2kaIluCPmNIx8zCxUh8hJyWSsJFAMt5fmioYKjafhwWoERPafPfpV8wnmaBp8W1CZMU48QT/N5LtGoSv+2sbAmrYPNg0cFtCwL9lEIQ9PWsoAwGEspAGSFqdTfvqMDZpacBJ/ZABkwjoHMagdaCATuweAPUKbnnrr9aG3+bLwEXsIJrMC2Fdg1IKN/Js40gP7REkQhKQSchF0hSFghFw0rcCCkIgqw48ugozKWnAgDsY8NzD6R0XfTXSfRmW7CQ2pYsjIOBwwYIYMDtgXIaEKy7nAJCLDNzKoVw0k4zDOGRkY2qDbqJCUFx/2iDFo7zFLcOgNoF6oqmub2ygJwCBXRfGB9Z+EQiwKZRQf0aaFhAjQfzr0ytIJ3BwpOIQViiuEVJR39HIJWc7eODch2XTfKZ9Z6rRWGd/lFbw56+xgi8AMZQyKGHfT5h2lYr+VGIArzXOVpGuNpgXWB8J7VDwC6LlgR0fyNlIGuAlPAPt1Yq/6BkMtmlRiJUNQ7lbZXKWvcpRgEZmshnG3KEgTqMJCxA1ns+UViYtH0dG567GJRlIR+03PbIzF7ddjsO6UA8scrIZlZ/ool+deTdipCRgfGvnk0PfMdCE2h3RnXcMXVrUNAoXs3CzNZpgboTTem62gctPSqllAH7IXh0GuxgPwC3oSHSClo3DauACkBthE2CpYiLlkP/NBJ2NeDBLFWBgwPZMwADBuwClRqPguIYrTD7PeLvmr53U+4ijQc1Lhhi9DWcSmM5rEVhNE0xhC7QVlrJmMfgDlU5bFMEQAdvAF3k7t1VkD2tnTjqZdqjuW7Q/3OgT8tLI+Z9bPKuDWoYkybyJODPvxo2oqE6AfV8lWlz6DoA4rzNI3xtMDqUCBjukpXxNarsCiDrjSg/KFUckQgAwynz9VgIMOEhBXYbQV2FcjojoxYgQGgAfl9SfXdPD/Q6UugW4cjPdrLo0DAygdw5KA6Wdom7IhpNyjOoLMRH+lLzG6UqAg0hLYGRw44JQp9phpuPW6RkEF15bBdFHlYr7xBBxhoHDpPeYtqy5jXgx5aOwwtQM/JsdbiEsv9ou8mdMOmjZbiluBTYMO0dYusbh+nV3ZEyOimMYZY1D4lKdu2Z2zSUTea7RL5PFjfRLQi8DzAW+kf2NADoymIn1B2qzVktLCwOOuTYFsdvBHQLJrHtu1cDy1Lvda0hH7L7KrCQnKW+0jXzvJFg/4zEvDhpLiZ9Ap6y7iKloWXYGYoKeNpgaVQIEPbSxRE1EDTzEuWx4NoNZzVtWSjZYGVkhtbnMxKtEwpojEtNA2LENaI7TDYSzEjZDYbZ9hOWcJaMJDt9mD8ToWCcGNZFdhNIEMDM1brl8mOCe00qZAPPXSBXs8SByJ7Oti3MoYE0JOi0SOUgeD5r3/5ktyjkklXwJpNNjAAWwiDcobDQ6KXpJ2Epsg1y1R1DJ9B94o2E5Yi4l6Wnp3qqbm0AuhA+UY1kBrwUOOkTfa2QMvgBkGDtvdrwzbCgQe2hXLMukVo62DtsAiADDQPrBeyNaNpjCGWpyxaENTIGOnBLwcoArmUGzw2GwEZAlXQMlfr4PcChnZsHQOeoG2xTnPdTQsA2aMbV71QUnhfgD8sNq2fVYq6aPKw9pnCFGCT/j6SwgIut44vknVRzYRCUaxMfg2hvPCqFbXQ9GbbBJS9YBHGSa5exU5lGPRJfbRpIOuifssKMJupSeit1VJ9ciEaKMUEMvL1SbhozB9Z1A+pDiYwkGEgwwrstgK7DGSgx4c/5W36a6txBWZDez0IKFxAhmZGf5XCwYMYS4i4ERirmEBGZKP7bsIB6tcwBCm7PKQAy3pUBlxIX7IaKWHHCgcVOGzYLtOhLbB4AosjDaSADJWFJlQ+CxSBMZoPRkp6fEXHSOgwSS2WP70AXYIZGC1CB2lbg/YAmW3T0NHUxr5FeXijgW/oQA4HYBReGaryWAb3CBpBnlUWzeEjB2ffbHUATzJaI5q2zb813WztoN8gtDlQKxs3LPIS1qwfGGZmji8awCxYhe23A14CBsEjlxqQDf4oCLwKC7J+ZWDT0KcFFrE9ydp8kJ/1EqOxIA+4LzXEmg3LFxNWChLoBhaQxggxuYEs4HAoaykGkJH3l9jSAu6pAdeQQQ6DpjCQ7fZgzBoywSffGQWYf8WShjN0DZnTP7y3rTVkjL5mb32EMIGOlHurCbvsLRiAAd8ApNtlB/ZudfyD9N5tlz2eM75o+1sK6kcp8qvGHoneUJ643JMo86G1/CL0oIftIY/xsj2Jz2AFsAL2K6A86GFzuCtFliNE5E4ebsEit2AX4ghycQ1ycT3s7BroLNnOxrDoN3xPpOHYACM6MLyxJ/zHTu5RBeiACkvIdo+2iN9tri8aOL9ffwLRd5kzPMYv2javkju+Wv4OJhlys3xkGMdAxsKj9g+6OCdWgEsBGxrzUB600JiSojH3EBEGMsvu4QDIwBQDo6vCH7ECWIFtKsAAMvxF26aedhYHk5jUlCWyYaxtcQxkGMiwAm9EAQxktt0NPoMVwApgBbACXApgIHsjgzFX1ASff3cUwEDG1engss7uVAAAIABJREFU81gBrABWACtgqwAGMgxkWIGdV4CNxjzQBWRWU5bUAjJiDdlh53dxDZltx4TPYAWwAliBd00BDGQ7Pxi/O0Eg3FIuBTCQvWs9KW4vVgArgBXYpgLvOpApRdIwV3moyJ1rZMXnt6PAOysvBrJtdky4OFYAK4AVeNcUcCAgU4q07Qvrq6b5S0cIPFLGXXy4+nRpoS2XpCWlSKHJbhqamF9YWp2ZuNGcHRVBU5RSJItXnbg2Ovd4yTR3b7SjOD6avJR1Zt708QtwrHblsYJFYuGNxTXTUGEI69XNnlSKQouPnT4W68MoGF8+Aj0BidvlgYw8m/3IVddm7bzR/Lsj7xttwtaMbwrIgpy9SjVHqg974CnLd63/xe3FCmAFsAJQAUcDssU7408maqJCD3qk1D24f2v8MQ1kkcmtM2um8Us1lVlFJy9NLqzNtyXRm6WF1I6tPr3fddKQmV9z6uacaak30z/0oEe0UleoyyjUZTePmLmALCFv4NHKUn9e0NbGXUYpkinNtrAVHpBEeFLWM7e22FuWUajLyAyQM8pu9iNXXZu180bz7468b7QJWzPOBmRWe16ga8iCnAOuXCgeT5RjIIMdE05gBbACWIF3TQFHA7K1nkvdC4OGWFFww+3F1lPdIEKmFEnLOz9evXEsnoqWBdbdeL7UcRRMNeqO3zc+bM2RkHE1kbfh6tpqbzESP1Mcu8YJZFsbbrlK8UOSMurs9NpcY9TOTI/y18Xl4Z4+v4eajIHsXetJcXuxAlgBrMA2FXA0IDP3FRYPLA5U+JXdmO8sPHrNSEbIlKKQhtvmh+fUkCdyzi0Yb9ckknxW2GoyDhqO0DOYRyKzKjXRUfRHpYgdyNBpxJkzydAyMVsqkqvSzl6fmF9YMc1NDDWmKsNoa8VtJuNgbXH1jfsLpoW5+31VGlCvMrVrac3MmJc0jtUn0wUJs2xAxmWQyC8JKz97496cacX0bGH2/kBdGsWjvHUpxYF51VfHHiwtrpjm7o20F1ETuKEHPfjqEsmTdA39o4/ml0yPHox361VQTx41UNEYaR55+dzYy00Oc/eJklFHpMyHONzlCJmxRMiCP1S9aC35ZWvJJy0l5ubi55eKnl0s/PhYVPwB8Tu1U/82ezFcHCuAFcAK7AMFHA7IBvKCaweXe1r757vyjxQM0kAWenrMjGJT1pl5iDvkAK+PQdAHhQMuIKOmEXWlXfetLIce9Ag/cu6eaXWsqboys/BE050F0/SFaGqGkajrwfRg1wlDVsGJ1ruLa0vdqd4EPPnGl6QfLU0/OfTEPNVcVkqkj5YmRUYiXnECGZvB0IMeCaW3lo3TVyrzi3VZlYbeB8a1gTxiKpa/roSSW0tL9zr1xaWpRw1V1+6vLrSrqbldLudDD3qERZ2ZMq5NtZ8wZOZW1w3MmExDRUogI48aqM6MNI+8PG7s3SYrRT7V/c+Na2b6eG5ce77aXx4pcqeZjA3I5H7lHyrLPowZbSqeyQ0tiQwujgwqCvJSYiA7HLoPulfcBKwAVgArYL8CDgdk1wt8kgwTq6an1wt8owtvvDkgAwChFDFRL/SgR37TkvFWTQLJUkpi8tT8uCkF5CdgYrb1qCs5PSqOu/jAPNeogyzCP6fGCWQcBgk3hqviKDe8NaqjhZEEkNGea9sXWNarhckOxSoUoW5eZLQm7NQt88xZKv7H43z2uXnj1NkUMZj2lRe3rcKgI48a0BmuBKu8PG7s3SYrRdL4cE1OAnFkx6upIyyQ2HuM+KOW7hx/N4n400lBzgHd54uQNWQS8LcsPWQKfGAFsAJYAazAO6KAwwHZUKGvMqSorf1ssY97TNFbADKlyLuq3zzfmg2nn0paV4z95WAOlIAJenpUKfKq7jevdOZCHNkikHEYTCi9tbLy8FqdXp+mywgJCEeCbUScjHgplQXIlL5pTdcfLZos86eLbVnAQy7nlSJp5RWz8UqR7fYf/GrAhnMlOIFs/zaZuDUsBwYyDJdYAawAVgArwKeA4wFZkR8c3d8SkPnVDlpoBiwLMw5SU6Ik01Bp28lQLkgCLeKMkNHGGQaVrqFlJ/tGJucXjMT818JEe8khywsBrHUpRT6V3Sbj7I0zWalHiWhNRvOo2RrIWJxXiuSGXrPxSiFUHiaUIj41YDauBDeQsbhBoMxebjJcQ0YtILNaQ4aBjK8bekd+/uJmYgWwAlgBHgX2CpCxLeofOZ5EBo2Yi/qjcgy6mA0X9QOGsCUGKiZ05RiYfqL+jwgE0aPdBDJIOUqJV3x02bUZ88w5leUkW4RMKcroXjJPVEXQrfOvG7IHyGwiZK7yCHK/XH41oDNcCVt56XcL2IEM2tlzTbZeQ0YAtPUasj0JZHKFd2h4ZPSR+Lj4JDuP6CPxoeGRcoW3baeDrfFoyKObrZL4DFYAK7AvFdgrQMbc9qL+xvPlK0Vgbwty24uWbGrbCx+bbS/klVeer14ptJ2PIyf+2NeQrVwrBUinFMkTIrVHwwIAK2wEZJrLj82jemo5PMQLkNhUhEwpkqYXXGwpiAdukxt/PFtFZhWVIpa6lCJd+7x58ng0VaN7RvfjjYEs9KAHYw1ZyWWjcVAPXrTMb1riUoPRQNuPmwKyPd3k7a4hO1s0qVLQ+5A5xBoyucI7JnYTKIbSRkxsPIPJsDVUH660rW77ctTBjcIKYAVYFdgbQBZ60CNKRW8Mmwk2hl3qTqU3xFfWjBmf3us6YcjMqz55Y9a0dDXjEAoH2pq7qwsjjTmZ5D6xKVovd6VIlhhDbNBaSL5l+ehKNZnOSPUl5gTJ9wqf3DxtqEg7eqzm2v3VtaGiYGBwIyALrBt6tjzWeiyTfMsyTglwimdjWB6D2uq7q8v3OsqJtywrytsmltYnqiJhu5QilrqUIp+StiXj4kRbWX55jqFlcOTefbuALDz6zF3T2lR7vSEzt6ruOvGWZSH6liW7GtAZRoJf3n3ZZKgA5wKyg5a3LENE7sjhFuTseVJf9LQmvioquCgiqDDAM5B8y5L1G7trJ0PDI7m4wZ7zoeGRqKvYmj2ixcUnMXRDNcRprABWYH8rsGeAjPzTSReHJhYWVs3GNdPt6nhkUlKWqD7ZR+6hhf7pJMsYKY2t67w7t7Ru+viFcW25LdmdmGAaYC4UM338ojeLes1QlXbu+h1iH7LHD8a69dRmY/ZMt0VE6q9NLC2Ra+qNAxXASXRTLsafTuKhE6VblKHp1v1HxD5ki48e3mws0pJvd8J2sdal9FKd7rr7cHFtYXbqapmmbsAuIFOK5MmpZ/rHHs8vmx7ft92HjF0N6AkjwS/vvmwyVGALQBbs4hbqF3H9eO5aU+HTpgJTiTLUAYBsUzOVtrQRfSQe7TqxNVuJWM8wdEM1xGmsAFZgfyvgQEAGhzT+hFJGTMPNNGoZbx3yl8JXsQK7o8DWgCzYxS3IxRVMWQY6O8SUJSsubOok2nVuqiBr5nfTGtpqnMYKYAX2twJ7D8hCD3qo9OMrxvG6QMsrh7sz1uJasAIbKuAgQPZk5eNXX/0eHE9WPvaQKapq6qpq6jxkCttLrH0cKxUxTiakJOvaM3TtGQkpyYxLcfFJqFnbq7ZnshOTP0nP+CQ9IztxE9YaTp3/5We/ho19NL+Slv6RrXHGGft9m338ZPbxE0Zxxkcua91X+l/++nfGteeM/PDj/156+evf/W82eIahG2rZQ6bIyMoxffwCNpaRMH38IiMrh1EEf8QKYAX2igJ7EsiU7ikdc+a5tiw4a7nhMIkzYAV2QQE2GqN3hWVfQ+YWLHILdiEOekW/6xuKkJ0513TmXJP9HROKCFxpTWOaSq9T6XWaxjTbPGhdtldtzyykpXVqdJ1a3UJauu1VLmsvfvnyo5yCiKhYcFxoajOaXmRk5thaQM9wWUPzgPR2gOyLX/1Wl8KiDFqLLiXti1/9Fj2D+sZIm9bMyeoUxkn4MVmdYlozw4/2JxI7Pv/jt9/D4+t7VfaXhTkr7n339YsriVJPeMYREokdn7N6RXhr00zYBHepuv3Fd+YO9Q42ARrfQZvY1D5TYE8C2S6MrLgKrMAWFHAcILMNg0Egs73E2qmhiADSiUmqU2cuwPOJeRrd5Yy4hKS4hCTd5YzEPA28BBKoWcYl+PHUmQuJSaq4+KQ6lcackZEQn5QQn2TOyKhLVsM8/NZeffV7SGMgcfZ886+//D9o9Ojp+qf6qlrUoD2+ofn501zWXn31e/6C4CojG2qNkX711e8ZZxgfN8zAyA8+otQCWIQVYljLwpNbBg60dmhtpxJcxjGQ7ZTC2M4OKoCBjPpLRFsYfXERrABDAccBMts+AgKZ7SXWMwySSExS3ZmaHp+4D87HJybp2jMScykIS8zV6Noz4hOttitDzTKswY/jE/fvTE0nJqlmUlJrVJS1GpXmk/SMxAS7rNkCGYPPIqJi8wvKnj77FFbKmBZEz28tzdVSSFpP0tIvqbXm9PSxlNTiJLUxLf1Zeoaehk6YDdSOWmOkN+StDTMwDIKPDGpxT7pi/ubz9qRdinUxamf1cMsnuYyzAhms5U1EyKBxnMAKcCmAgQwDGVZgxxTYr0AGaAyQE4CGhFRVcoUOxRfN+TSV9Rm000FzomloWZNkFRJ7lJrWrrGyz2XNHiCLiIrlgR7UHzRtXHsOwmwvf/2P6HnbNI9vIPO/ZmV1a3QfJSavpWe8SM/IT1RdUGvX0zPAVR7fUMseMgUa9uNKM4rY85FBLRDI3KVVd7/57q6e+P/rb6YryOlIdH4TnfVjIA7MBgsCT9Dz5e6q9hff8UyVAjACGdCgXcU9Yj6x4h5VFr3kIVNYzt+rYjQNqsHwFpyHJyGQWUzRs7G2mrA6aZsNGrfVAQjrIVO466epxtpMp4JSwaERsAkwwXoSXsWJPaQABrIdG4wZwRL88V1TYAMao9eQoTuQEQvIyDVkQYw1ZAckEVGxO9KPFJdWXh8akSu8QYRMrvC+PjRSXFq5oXEUO8Yn7n/2xVfdPX2dXb3wuNx+RaW2MFNCmlrXkYmWQqtAzzddaoVGOrt6u3v6PvviKxh7Aznzk9SfZdhl7c0BGfSZAUzwPExwtRQW/NesLC0Z8OvT6m7oUuLik5Ljk/5vVhawALOBj6g1RnrDANiGGRgGwUcGtbjrpwFFAapAiYqgCprMqKs0OqDAgRok0nQRNO0urWonF2mhmRnuJXZMg0AdgB7If4CT7uqJGB5wA673svKQ5BsGroEqUG9hpfAkZCy6CmJJGajdVhNWJ22zQeP/C9Zok6EmkINJMrvCGqEcHrlTWmm1wq+0smp45A5sAk7saQV+IXRytj3kMV62J/EZrABWYHsKHBAIWY/33xPAw+kf3iOOnQIyucJ76ObY0M2x843N5xubQZqxjT5rFxaH/Lkku4AsXbWDQFaQpPqUDiABT1AnUd+4gCwmJiE2zjLpqUuxelGAyxpqGaYZwATPwwSXNVjwX7OykhKIV0d7tbprJJAlxif96zaArKqmDhA2+B+8PwtCaKgzdqZRPkD5Bk1D9AGMAixDdANxKQRZLDOewMhdvSdMMLxCa2dcQj+i2VC4QfnGtgoiJx3cQq0xLIBL8CSD/0Ds6mtyGpehCWrT1hOIiXbpQ3Mwwyb6MeBwyO2J+5DJSiurbk/cDzgcgubB6b2rAAYyFh4VskEqPokV2LYCrDR2QCCENPb+e4IdBjIPmQIw2aeff/np518O3Ryzh8Y8ZIo4BMjgxCJYgB8Xn+TgU5bRRxKg/6y7TqBdNszJlYBcxZWByxos6PhABucN//jt9xAjGHyD4hdoMpmBYi8LzdDzbqhNAsg4gAMlLVRJkIaThn/89nuIVmDKEmaGFmyrgJdgZmgWxtvgJUsTbN6yhOErhibQGmwscNI2m8U4lz7kBDGqP3QMTUAmwzSGyrI/0hjIMJBhBXZNgbcDZJDJ7KcxBpDFxSftrUX9sXFJpWX6sjJDXHwSALKyMkNpmR4SFdp9w5NcCchVXBm4rMGCn2dkJJKAe1mjBWvjEhOSPs/YyhoyUNebi5ChbWFQhS3ucAEZnKO0srZJIAO1Q2xC0cpxgIzLSYZ0VhEyDh2AVmAZGYjGoeqhacBkODaGarI/0hjIdm0wxhVhBd4akAEmszM2Bro2W/hgbHuRlKdGt71IyrNalW/nm4xvYtuLiKjYuPikisqqtWefFBWXNbd2FBWXrT37pKKyCjYK7b7hSa4E5CquDFzWNiwIDDKyodYYabhE7O0AGfH25XcbT1naZAOtgEEmRqNQ0kIvMfgPzcYJZDbvhxJxqR2bsiRea2CQFpeTjGxWQMahD2w7mDCFcUp4Hk0EHA7BM5WoIPsjjYEMUwJWYJcU4FhAdgBZQPb+e+QCsh1cQ7blfooLPtDz2sb0ZAfbGBbseQGdvNTc/uqr319qbodnQAKVhXHJ9iMDmGwzcFnbQxvDslILO1XQK/TBVcgNcEqOgg80G41ERB54PunKXXJRP4NpoJgkwFH8B9LQSU4gI6caYTbwRif8CC2jeMR60mZRP/GeKWgpQxMuJxnZGDVa6SCtukvq466fpt8hAC+37tK2I6gCOP12FcBAtkuDsRCvS3MABQQHJAJn0du6F7sJZOjur1z7I7z66vfgryqx9kG22GF7xgH/dBJo7PYjZHDPC1Q91uVoPLHAvfKnk9DgE/ow2FIFWLcO10tBGmMAB/gIskECA5bhmjDISZB+4Owk9MGyR8aLKxXInvtcQEa+eUC8EUlVzbvtBWwFXJ0GmZKOUVWhpoBXtpqwOmmbDRpn6gAJlaRJ4BUqLFQDJ/a9Ao4IZALhAWdnF6HwwM4OnAIXF3WGe37gDpvdWSd3yppA6HzARbzjGu6Ue1uwIwiUnM4Q+7ps8fYJPIvdz/6T942fvCuztlD7jhTZTSDbfs8Vhyzq31oa9WFrFtBSm7W2g2vIUDdY05v1jdUIPIla20NpBnDsIc+xq1gBB1HAEYHMNyH1087S0QR3oU1MxckzqLuu4JP2ii+7Kl+1qVLshjb3cLfZKd//fOx9OXKLI7rQyTk2p+DLrkpw/Ko8CHWP5xKabdfSXnmDC2umq3l+O1KjQOivMpzIiWK5Izti3x4jgkj3zx/7/seU55nwTQc1BUKF+OSffTofS2JznL0U9lT3JvLsLSCLPhIftw0miz4Sj/Zxb9GabVjLcXyzVZjhG6qhI6fRmTtH9hP7hhVwZAUcEci843Trl4uG4twYg6JA6JJdVvrqnMYQ5Z8S5p8S6ulpJ5D5uS3N+f6mwy3Obes0JnRydvfyJeoN879UX8EAMp5LjFbszkdFzrXZlScdOT47Up1AmHhh3ny91HtHrG3ZiMBN1NDh/f2c4rjf5u6jQJjg1vmzZ17slqveiYJ2reh3nDVkoeGRcdsAstDwSLTjw9bsFJOhG6qhY6YBim24WYNjOo+9wgo4lAKOCGRcg59A6F5TV7Ge78uVgfW8QOhcftnn+zH32K3OdjHMCoQuJQYmkIE8PJcYRvbWRwcBMqGTs8BF3DPm+4c2Vzc7WZwMsgqE4a6tPytKdG9V9j0GZHKFd0zsFoNkMbHxjDc6sbU4O+jWVjeHGi2wM1gBrMAbVcCxgMxLlQHnBI05lniMwMlZLBJJRPKTJyrWC/0lRFokcXF2smNUFri4Ti/6LuYx57nSiktfVUempqY+aSn9pClnMMVHRlvLKS9/ZVC6kB9tGcv2DBzmeS7BPIzEAZG7WGJ9iKhV5zyXGEbQj56lt0wfvwDH/VNWMSFVi8k4cEx17Prkgml+9m67IcGdbrLgQEDK6cGJOdOy6dnC7L2uGjWIPgo07UtrZmgQJIyjNb5AHCfv+GPdNx4sLayYZu7eupAfJaEN8tUlFPuo6jpG5uaWTLP3xy6Vx0npUgKhyE93qmf88eMV08zEQK320AH6Emyjd4HiPxflpZvBa4FQLj7zs091KTTyNhJ7DMjAThmh4ZGbmm2MPhIfGh7JoDHQhckV3thaHAeW8ej2RgcAbBwrgBVwHAUcC8hc5F7knKCy51yFFZD5HnnSSawbQw8715AJgt1frnh3hTInuQggO587Wh5dEB1UXZTzaWdxT7gYjNO7BmQCoXtevw3u9BeLiT+ww3mJHyacfWOSVdpkVcHFe2YWIHswfbWjNjMtu7R5cmFt6ZKGWhamKBpeWp1uLstWqVLSK3umjGtdOZ5ERMozSp2Srk053vvEPHaxUEuk07VxwSKSkxSFw0tLU03leVpterahZ3J14UKSK3CPADKOug6EnRwzro211WamZubW9t83mXrzqbVuzpGn7phWbl7Qp6fmlF6YmDdN14QzX4oUhEq/WvFuC2beUH5ZxPU/+ZyoFtjgHX+pHb2694DMcfop7AlWACuAFdj3CjgWkIHxTyB0rz9pDWQu7lFBPolBgZdPV5grIhKJtE9ioAwGeHgGTkGU9Hcrigu+zPGbALKmxIQDxHmBUNF0ruJpHjUZuotA5iwPSYg5Yn2EeAsJIOO8xNNYeEkg9NePsgHZw0sxzmSTnSLr75tnziWBIvEXlow39CBGKBC6+SekJykJIAMH15TlAYlc5i5xcnElg3wBFTfN909TMTkCyDjqij4zb5xsCHYCyotVLSvG62XgVhJu3DQoSGwSCH3Lb5rnLiRDNyhnfN1frHhfi2LeUEY28ra6CEUyoVgh9Clz7/rRMzvaNs9unTkgdMJAptj3/SluIFYAK4AV2LICewPIqJFY6F5bX/GMxiY7h1JBlPQfuYCsJpxGEFHpsYqX9IuTuwZkdjZhC9k4gex6OUAfgdA1t8+83J4JjCuKhpdXpi/XlmboksIDFM7WkSQuIBN4qo8PzC2YLEG+hZYUYJAAMra6BELn9C6zseuo7ZYcAqFbbp/5UXMqnMNVN68Y+4rEDGdIIOuzC8g07t0/+95+7XPja3lRoT0T3FuQ2r4iGMgwjWEFsAJYAawAnwLvNpBVh9F0YrVOfzeBjGehGM+lDSGAE8gGSsFyeIFQktNrXumgNuUSOPvr6q8O3pl/vPrcuPZ8frxN420JQbECmUAoTe8yGmevG9JUZJBPe3LEbAVkbHUJhKLMHrOxO8e2CQKhvGDAwnbUejXaCMwv2ESETHYgKMMlNNslqVfe95008RA0suuJNwJkAYdD8YEVwApgBbAC+0OBdwDIQqVfrnhdtllyRC7qZweyrLLyV8dCQWBGICSCZ1+UBcIhnGflPs8lWBxN8CwU47mEWuBKbxbIoB3BAVfP8MLL0+YHZ+IsJ9m2vRAItZeWzLcN1H5sAqFn0aA9QGYTIXMWubiIyFlaMkLWVWk1h6v0ZkS2BCHSX614dYRYeBH6yZMg15BVvb01ZG8EyLYcGMcFsQJYAawAVsDRFHgHgMzNbXHZ934a61uW7EAWlZn36nx8NFjJ5OR16ULFk0zLbqICoXNeRfmvKoMYoEAuWuK8xMoKPAvFeC6xmmKc3BSQCYTOoUcvNORGgWlEgdA5pf3ZatdR2ECBMOHcY/NQudU2swJh0vl581i1ElQtEGkvPd4YyIROzuQaslP0GjKRpm3VOFAK15At9xZAFFaEJh4JtigPKnLLkP/HsmfVZraUEwjdxad/9q6tZKi0ix8xkPEF6h2tW8T+YAWwAliB3VfAgYBMIHT2PUTu+BpGvGW5XhkBdmENp4dewdbWkAldTg/4fHPNDezUAMdgngiZk2/04/bSx8WReVHBx0tzP2/Prvex4rmQlJxfNWecjQkgPfRTulqiNTyXYNVvLiEQunhFaOFblrPdejKtDfEkPCS3omCfsgw8NrmyPNVYSrxlmVbSMrK0ftsQAv0UCL2LBp8tjV3KSSPfsow55ES+B6pufWJcGD9TnJ2SWdFw/dbEPbuAzDn85LhpbaytJjMt82jtwH2TEf5FAfIty8X+hrI0XUbOsZ7J1bVe623nBEKXE32+3w24M+4mdJU1IRCGuDb/7FWeznr1zZ8kaMzORf3/4DB/XHz3OyNcI1YAK4AVeJcVcCggE5VXMfe2+LKrciCawp2tAdn/Z+/Nu6JKsoXv79F6DkUmgkmBkEwqnUgCIpNMmcxQTCKIgOBUpTiXU4mAilVOpeVQlgNgOYAikFCllGXf7vtYq/v2H7dX3a6hr/VHr3X7eZ53rfcDvG+cfc7OnXHOSZJklrNWLlZknIgdO3YEEb/cESdCDDCFZIT/8DzGtT14lfRmH0zAXoBMEM2rkzO/2Lf5u1MNrvbC/UkW7jQswRzZ2lT1zakmdoNTV0MHWT7z8mj2J36T5kKna/y7UyWTAJlgTiw/cvXOY+kcssf9Fw5Xr/U86Mtsb+z48tkzaf/+qHQwB/MIhme1dN3pfzo2+PVXpxqyGy74BGSCGBzr3Nt16/Hj565HmueQ3R4YGHY96r1xvMl9UhorLsDs3B750/Poz9LdBOyLVZWT+jN8STwLaQwgM9xjhgUMCxgWMCwwiQUWEJDNwkSIpzaYkipXvXka+59frNq+NC4Xnz1jzpdkId5y51rM26fWuxVB3Eugk6okiGtCjvw/MUfPmSOiRRN/sNmk2aedwE8gS4gya35+H/N+dEJBRFL9qpRtxsewgGEBwwKGBd4NCywJIIMJNSQu5EB7+IFpXC4+7YnZY93TkDYlCwjrQ2+1h1bG+WlDIeHUqp7/E3v9/41ukV8snVLp00s8k0D2+5j3I5K3vBujj1ELwwKGBQwLGBZACywhIJvenOonBxiFLhwLCKbowDVOk5V/S2D2NZxJIItOKMD/XiNgWMCwgGEBwwLvjAUMIDNIy7DAbFtgJoEsIqnhnRl9jIoYFjAsYFjAsABawACy2Z6MDfmGBWYSyPBfd9KANWNPUsPAxv3/5Tj5fx0n/+/G/f+V1DBgzdgzaUYjwWK0wO9Tm0/mbnIVVfxHOfu4iipO5m76fWrzYqyLobNhgaVpAQPIDFwwLDDbFpgHIIsvu5IY/Rr6AAAgAElEQVR37H/sdV9HpO4IiSsMiSuMSN1hr/s679j/xJddWZqD3Ttc6/qsLW9Kyy+lpdfGxKS9/37a++/XxsRcSkt/U1pen2XsODTefTEssDgsYADZbE/GhvwlbgGZxvTOIVsuvEc+AfQcMs1XLH2hCkZjH/8WntyyIiqb+4Qnt+R9/NuMMFnehT///OtvExc+Vquk+ajl4duff/0NPj/9oS8vuYXLCLkgAYptefiWhjUzcnJ8/KqpJOT18shH4XOZrD5ryx9LSiuiouwWC/epiIr6Y0npgmKySbsBZzrNXsGlmaWvXrqB5qNJq6ZZl+n08PD28Z9//e1+O/+vpBc/S4Z698RO2pTqKoPN3UPcw4vqNJPGzD+QBaXWzP6u6iXOBEb159ECcw1k1vS9ecf+B2nMEl8e5+iML720KkXmM8Zkx/7Hmr6Xjg4Jm2rzuhx5XfmJDTU03ks478Kff/rDnyd+GW/xRKvw5I87//DniT+4QSo8+eL9X97+REaolodvfyIZpSweMXkX/gzTzHSmK055SWE3CPquPydnQX21pba8KS3XpDGAs4qoqDel5bZUjznbj+b2o9acwSftBlwRXnoFl3KqXznF9LL73kMmrZqXuvjdw6FQNZDpxetVc87ifTT7nOmzKmVbeHXfxC9v6c88tB6i1c+//vbTL3/urPb4D6JKQuPS9CwLGe5oYu9hA8jmcao2il4KFphrIEtqGLBvfgiOscgNO3MO/WNdzf340ksb2//T9sENiLdvfpjUMECHhryu/JjcxujsrY5zeTTeS5gNrw/7Ov/wlvuBHt4+/tMfxu8TIGP4pRqeaKSXkZpOV16U8eURV4rv+vsifL7SnMzddCkt3W6xXEtL2xEfP5Cb252cXBAZ+VVm5t2srDLJbXYpLf1k7iaqoR/NTbP7GOYMTlscJWhGwlMuO2aZfsBHyb73EM1a0EgvJfrdwyX1xu//wv8D6sVP327TlODFCNOU7Hd2cGtRIAPfGP5cRD6jabji0J2GIyHLpRrxuFyaXw0gWwpMYNRxHi0w10C2cf9/RaRuB/DKPvB3a/oeCIfEOu31j0JinSuisiNSt2/c/190RHD0yBzmPD8lILsojf4ezvmWh2/vt3/cqQAZ/AbFoQoLZdwmOclgyFMngJR0uqIz3KqUbbgAhKPnqpRtkB6HSBhGuZ+wQIeg+aT6s5/RzOcnr7fScVmzLFBbLwtoCD+mf/pDXwvzMno47eRHivtQMY7kYlQi0YarUra5iipqYmLsFsvfyss/SUoqsVrHHI4Rh6MyOvpgQsK402m3WGpiYlxFFTSXH809Jc1p9cFb4HM3kGvanHRBjRqKbVma++0eNtHsDFQNLz1Bry/52EN8rpq2i8XHHk6bT3HtjLdIvmf6vyMpoxHPZZ/Br5pdlGsO2hByf5D+p3A3AvQu+MdUC/Tyj0YrgqVIDi3oHm7PlntMUNxdGCP/0z28CE3JOR0hEpxkoBsLt8uutdzq3olf2OBAWwG0UieGfRpYLnW8QaQBZPM4VRtFLwULzDWQOU78n5C4ohVR2e/banIO/zfQGPc3JK7IceL/0LEMOMx5Po/70DRcGKYradBxj3rKfECATAEvLrsy7LYgmXEJ4KvedMVKV1CGhRVYgXENBkcoAgd9mgXm4J8eXpxUfynlOCxYwIiP3j6vZelmQVW5X+dUPawRVAGzqE30H2Xl6WFhdovlx4qKlNBQu8VyJiXl7Pr1doslOTT0b+XldoslPSzsP8rKaV4/mpvRsGJkXzSXLay0kV4ru7sBrGuTIrA4qrnExx4oxhWEpvPScNTUXrP/2ZceMnnVdP4FptTDqRGgH05c+BitB0/14mneGQ+ruyg1r2dzuP9nUVXUB39uqQV6+UfD7CCQXzfUYy+pm4FYzMLaWtqTx3U8lHy/vUXRjW3JYGT5h77c9jEWUPot6kM6qjtxXnILX6iUEYswgGwpMIFRx/mywCQ0Joh0R/97y5WbxZctF1NSM/3b1O8fkME4wtGYd28ZG2oltzzHTNI8MbtAJg2LhAKJnwCHdagRPzcofCBPwz7oT0dYbvL2UhbNhTrAaE5/STMJkkp6NYIsyJRULIQpkMGmsc7k5M7kZAj/WFGhCWSQ1/fm9kNzzlaTU4vUiFhTvfQ4z7lTsozanYGaC1uBV0w/+4Lq4bQunt3GvWSpF0/zzniY66J6PVlldvcQASrhfxMnkDrPICVtSqwOsBR6qsBFJ7u1YKOYwkzwCPqP+qcFYBZ95QhpCQkYnHyojDoLPIKK0MSKs03ed0s1gSwGkM3XVG2UuxQsMA9A5t+SJQwHvs/Q8vAqAY3iFYOfj2xqhCEMhzz9n49S4qn7D3DwxV+3OBBTOuTmAG4cx+nWu/5gGfq7Fj1zXsqiC3w4XqshA1XSqxGM6ZThQB/8i0uWwF52i0UNZOoly6k2tx+ac8ZXSwAdcP7maqqXHoEMbaJnOpCv2XBodiZNcorQjoR9ycceoqequ2oz0cOxxWlx1Gh68ZhxlgJUh8ntqfwiokMEtpTnkqV7hdf7PxpklwnMLd+9ZAmPuCaWywKXGObyzUOGPQQ6OfsHV2iPGhkso06sqQkoudSBTBBNgeZgUQw03vQ0LDALFpgHIPNvUz+MI34CmbQd5H57C85zdLSVcMftwMABC+cPvQSQko7F7t/Q+jMcTc8xAaoHkt3TrXf9Jc8NLlNSIXplwUCszoJVRiOgNPUjSMPNdpgRA7ipfzA3F7xie222vTYbhCFSvakfsvve3Gr1JtWcM75eK6NkrqZ66TWBzMt0qG4FXjH9vuRrD2EOmDnq4eit4Sb1v78evPLafawMPsUfD9hhZjzAN5x3eyL6TL6HbHpAJnvFWLtMAchILjSU1BXf8nvIlJcuEejxF4I7IwwdpG/oaQJCfnp4cakDmbX28uCYq6c2bkYmY0Fck9+6pyo1dEakGUIWvwXmAcj8O/YCBhHfZ2h5VlPeJJKmZ/ZmJYxKFMjUKw5QlpuupKEZJ04czjAZLk65s0jjpnoEhLIwPTf1IkOAZJxulWTa+iMxuHMpk4oukHnOSViuGjJYjSRpMOira8TNdpxx/v9N/f4dewFyfG9uPzRXrOp+ZQGbj9YCI7maQhfS7BV8Sp3O4KXhsEUY3ulkX7A9nFqPMwU+0ovHBDMY4MqaxJ7K/w43RNBRghPo/Z8aKyIzjUI/gD4yRWn5vSCjkkteQ0TeRcQHZXDZEb7SzfiYhXrCWDJ5f6pMcprFofKytgaQRVZ9+nD4WWdVzIzM/YKYc2Rg4lJj9IxIM4QsfgtMCcgCZmQP2aqUbXN2MCzOl8o45TGuIRjJTxV6kwdf4uSHQZz+mpde1WQ/kSn04OTNSWDylYGepueYQGOGVlTyoj+dYDg99crSyyJDhqKqPBkoX1ntFJtgjUAxNajhUL4qZdscHAzrh+aweoU1Qs8W9hmNRvQ8wYGzNqTHjdXUJtqmI6TFieJ6gmZ2Dsi89JBJq4bYN50eTlscw3rdQy8eM85gQF2Wnj05szMsxg4PzARbICTHEte+OJhw/9RYEVCDuAb/zA4Yk/iMMhMkcJcrdRI5kpSOcvj0KqcXNi6fRRPIpB+fNCVogp6zpe4hm9kp3wCymbXn4pc2P0AmM9ksX51EPUwcOcEISMdQjTFRAREYUrkEOBxT6GEDvYJQUCI3XHJqcGM3FgFCfNcfh0vuoAqqG1eWXhbUAX5zU1eNZo3Usx3OQDQwB1cnTVVzCVPk40Kw1agQ9DooHYBt+sF2VyJlCdDQ8FTTJrhXDOdaaBG5h3ieMIJqoGJ62TEB17VAwlz2cNrcGNY0BQIiZ0zMNbMBTR007cmZHb9CT8D/brVAL/9otC6A3UzaL+MtEmlhZ6BlyQmU46zdqipjC59YiUfDUg8ZKMBlgStMoCJcYi4laIiRSxfIIhq/cI1/B5/efZl07s8/6Rq92JbfdunOoGvg4b3TrdmhyiYzIXBt0f7Ltx+5nru+HXx4v3unI0J6JDhPD41NoEAIjN7cGQtPA6I3tp35vG9ocNj14N4XRzalhigCvZUlBsfkf9h549GjIdfD3lvHm7LClFyCGBRXuO/cl0+eDLse3L64q2B1oPKIVoQLBwaFBod4foKCuDTG1xm1wLwB2aqUbQv5cnEcgHDEpAPr0glzM810Kj7Hl4vPoObTqfWCzWv08HlsGrfxPX/1zaNKPha9dIHMFJuel1+Ql1937P6EBpD19fd07iovqWw8cWdwbOi4U94WFll/dWik/8TWyvz8otKWc3dHx7qrIsQAkxCR6igqLSjaff7ZxK1jmwtYuLQgKyFI4qTIzVeHhu4ebaotKCitbD13Z2TwSO5KmPgZkOmUFZi099bo2K1Tu8qLy2t2Xeh1uc5vkve6mdbv+8o1fO3IttLiqsYjtwdc/TuTJ0ErQQytvaBCxgsNwT6Q3IwyylJ4uRLrOPNAFpHU4OP/tpFsoVlAmifcu7+lFRz314WmLdVn8WpOa2GE32ELIITRBcG58RHOoFWXLpABZAjimm03tYDs6+PpJvbqpRCw/qPeiQeHciH9xiNDo59vC5cgRhAta7JLcxMZkCnStPeQBYasCg8NCTCvlBxUa5uvTfTul31yDMh0yko7MDB6pz0hQFJDDM4/OTx6aSv46pga11ojZTVim65NPDqSh2poBgTRtGpddnqG52ddtPGGqaa5ZiJyUhoL9DyHzKc9ZNEJBTP4/2+ImmMLwCqGeqV1jtXwo7jFq7kflTWyLDoLcEC2SF3vBpDpANmlJkAfQVxZ89nE89PlMENH1l99PtzfsauxrDA3eW2kydO9pLeHTIhw7L74aNDldlANniwCgQzItMoSRFNp98Rod7UamATRUvPZxOMTxbj+6DgxPPpZveHrmgmKQufW9AOzAmS/j3k/InnLohsuDYUNCxgWMCxgWMC7BQwg0wGyi40W2f8UUnV+YrizAiZ7wbSm8KOey18NPBl5OTr2cuDLU85o9xlmmkAmiGGl3aOjDy+1luRLDqqCvTcmPIBMqyxBDCo/NzF6pkoNGYK4qu6im+3k/WqKEHV6jDH2kKEp5iQwK0CWEGX+fcz70QkFEUn13v+3jaeGBQwLGBYwLLCILGAA2dSADCdyIXBlRPLmjv6JvgNZ7kitYy8EseD40MT1VhskE8SI+su+AJnKQ2YKMpuDRDFQ9pB1t3isPyZGB3i661ArpVxjD9n0nV5TkjBbQKZ5pZIRaVjAsIBhAcMCi9oCBpBNAcgE0WSvPtJekwrLiIJoKjr97Uh3NZKQIGYfejJxpcnjmFlBzD08MHFrR6IMRkEFx59MDmRigEnaQ7ZP2UMW5Dw1MnqxEfeQPT9fB2uUghgUac/JSIjkCIz7auwh4wwy+18NIDMv6sHRUN6wgGEBwwJzaYElCmSCaLamFOBblg/PbJPCBesi2PqjdBSF9pJlfNud4ed3P25kb1mWbDl5Y+jF9dZ1OLULYnT95W+Hbh2vKpHeskxfHcAcWqGOT56NDn55oKGyqLy5/dIXt+/7BGSm5L1fusZundpZXlJevetir2sUbxSQ3rJ8eqF9a0lhWVXbuTsjY+c3xaIaRmBhWEAGMoH1Ae3PcoFeLh6wzIfLxedydDDKMixgWMCwgGGBObPAkgUyjfU71/h3p0omATLBnFh+5Oqdx9I5ZI/7LxyuXmt27yETA0xme2PHl8+eSfv3R5VDJYTwrJauO/1Pxwa//upUQ3bDBZ+ATBCDY517u249fvzc9UjzHLLbAwPDrke9N443uU9KWxgsMqWlvXc1sQFkhofMsIBhAcMChgV8tcASBTKDWgwLzL4F5hnIEtdGp1edzWn/i/PE/3ae+N857X9JrzqbuDZ6zn7tGQUZFpgRC2TEhnSn2ccLHH8tK/trWdl4gaM7zZ4RGzIjwg0hhgUWjgUMIHtX3TNGvebdAvMJZOtzG/KP/jNpU39E6o6QuMKQuMKI1B1Jm/rzj/5zfW7DwhmADE0MC3i3QJs99oeSkssbNtTGxKS9/37a++/XxsRc3rDhh5KSNnus97zGU8MCi8sCBpDN+7RtKPBOWkCmMTFAe/eYtKuMbiB7b7kwY3vI1uc25B35R3hyy4qobO4TntySd+QfM8JkZWde00Oxf/qld7fV5OPwB3l/+uV1j9PXLFTy7r63r85k0BgM7+57+1PfVvwKARb5qqPMZ/USosx87VQyuSKwIFRMrSSVick05SzkSE0L+62w2kpUVJs99o/FRRVRUXaLhftUREX9sbhoRpjMx+7hJRm0rGabaj7a3fcW/3c0e6b3rmKzRhdu2du6s711Z3u90+3ztq3Lq98hx2/bkrde6fA0/bbKJGrh2Qi3tjU/r43QlNza1vzmUEaRophmmqlGNva4D4EavbfHqRLu3N+Htxre3S9Xv7FngoY1M05VE0hP9XGNfzfaU+G7HAPI3kkaMCo17xaYNyBLXBuTf/SfSGOW+PI4R2d86aVVKTKfhSe35B/9Z+LaGDpMpBeHFZ1cXXhydUbFKhrvJVx25jWdS2zOjle/6HISlSOl9BPFQA6dxTk1NHGBTqVceqoYDdNkNmtGzyufkI4qRsOyBMKsZWde97f5A6NUyXkJa1rYb02olTghmXErfygp0aQxgLOKqKgfSkoy41ZyGeFr07roPxYX/bG4qGmdG1k0U9LuoZkAImky2j0A33969foVaV/IIrX761ev3P8XNuvW/l88fjMwsSSjL11lvbOqcB3rPEBglelSmFFasxwvERuwF9AYDVOG81Jf3x8V1dZQzJozILNZK86PTVDiaeyZGB3raVSYzGZNOnjPI8a5v+98HTPXDAKZc38f5Tmmw1QgjNrZALJ5n7kNBd5JC8wbkKVXnU2qewCOscgNO3MO/WNdzf340ksb2//T9sENiE+qe5BedZYOBIUnVyfbg+0JwcWn19B4L2FuTmLTgzTZTMoZtrZeOgN5KULvEZ3FOTUmxQUuvV4RXDIfIZIqRsOcNL1CF0X8pBaeUi2olbiM3Wn2yxs22C2Wa2lpO+LjB3Jzu5OTCyIjv8rMvJuVVSa5zS5v2NCdZucywtd/KymqsUXW2CL/raRIM8F0IrkGZV/7OnpeveU6P+vqr3r7CZBpWo9GcpInVTK7cq+m08uWXrVtR1W21SRBmwxq7J9UiZ9Usu8JfAcy32X6klITfWgkh0pUJgUyGu9HmCuFKjBVaQaQvZM0YFRq3i0wb0CW0/6XiNTtAF7ZB/5uTd8D4ZBYp73+UUisc0VUdkTq9pz2v9DBoqgrHr4Wd6+l8V7CmjMHF4krL0hgGPPzr7+Bgw1cAvL1jsrCIkTSNSA6acEsTjMyadKqIk2GykOkZnq6OolKKj4P9yonApkvikG5iBqTcqqHTcjaKEjA5S0Pf2Rbr2wxKb0XrZRHW3teyctk/W0mcGcyoxHfjKYpFOUlv46UGC3so2QlWYZmRdBK2FgYGC9w1MTE2C2Wv5WXf5KUVGK1jjkcIw5HZXT0wYSEcafTbrHUxMSMFzgwCw38WCEvFWGAPqVhrFFClNmLzb30IgnItsJfTnJ/G3OvQk8Gs3PQxiBJ+YmiWHsKrtPsyr2aHi8ELwyAYhyfUW39CNusEacONf/Q3QKfN222hCgzeMha2+R4znkGaVitHYU0F5YObq27+ysO3pPXIs/XmWwb99wdY1/RAQYx4O7CvExsXQ+kAf+ZOgEkpkDGIRQucWJZ6FHD5UhwiYGquB4KjjFOGhRHU1J3WkKUmRZnANm8z9yGAu+eBXyhMdXN4nQP2TIxJTWTjjK+h53H/xUSV7QiKvt9W03O4f8GGuP+hsQVOY//i8os7mZAVty9lvvQNFyYYy94iuDCMQ1LrMz9OP1AlrIzvbCTDGZu4CqcxbFQ9aypZPdYOaXJNPNyatOvVEka7zlluudXkE9LpHiBYa6+qJU7O1rGcz0LCAbmb5iqybwur/na2jp6nCYv5pKtqmzXA/iDtqAG12svKBfbDpCFthFuBNSTDKX8/OtvSkWk9V+FO9FKnFkSosx/LS1NDwuzWyw/VlSkhIbaLZYzKSln16+3WyzJoaF/Ky+3WyzpYWF/LS1V533mzP2xogI/z5y56jQYw7UgUZVhKP4qoMm47sG+9m2VbOVei5f+F3p3S+vdcsMp4IVFQwA5zHtX4XKxbqnv7kLPmZSGeMjYPjP3V7VMP2LUHrIfultuOmAh1Xazy72ljO0hk6DNlpzxvKvmVLKUxpEBAcUasM7Yd3Ajewq8ojCW9EhaEETw4hRGDtNLAOn1gIy6u1hYWQAFFAO8gyJwCxrNAuimXrJ07u+B6sirqMqaJi3CZq1YWkBmjVkz+4cdvHt4YdRoqhZYfEAGgxRHY969ZdycJA+mbCcZm5P4yYmsZnqZdVCmF8JANwaUiFngK501IYYyBIcdXpSkYmG+lOdUMr+qS6R4gWEv9cWZGFWlibm6oEo0DWT0Yi6OujgnDYrSMwWtO1dfnyV7EBjDCKWTcE2JRoAABTLYNNaZnNyZnAzhHysqvAAZPMX3ALw7yaidaZjrLfQRtgWoyr4qDloKcK/OZNCmQWtzNcVuoJdAlT6pUtq8T3fu0zSMxhTqUu8hw0c0y3TCaiBDN1hClJk+dQOZo/BNV2GrstmLls4hC+cJQ8zCAM3Lepe0sYw51RRXGZcAvmoCmZRXBkEqSo1ZFMJoGFKiz8w1/h1yG6qB6VFVfGQA2VTnWiO9YYFJLTCfQObfkiWMCDMAZIoPwKasqeHbZG7Hg5IGhyFczOLWMXFu46AKWYebMrlkVD7Ml1x6L0rSZcSff/0NNaHzK8in8zRVDMNeZln1IwpGKAEKQgiA+dtHrTiFce4HmaiAnim49NTCvkpWIayPQIZLlkhXaiDTW7LELEhv2BnUAb0W5HoLTYZt4W4aWDtmrMleN8Z2pFZCa3M6uBOr/jW4lNxX2NRPlyxtVsZqHHJBZKv0VmZlelKlwmqcNL+/UuTCJUuURp+6gczKPGc/dLeo38cEIEOO4agFMQsDWBAEEKr0EkAybSCr66EsBWH1SwDgt8OVRwQslKz2kHGgJq94qpDRALJJJ1cjgWGBqVpgPoHMv039MJRMH8hwotKbe9jvTjLrwHyvpiU6jYFudDqkpIIlqpNBDGUIboqlmmBiCHBi8anviqGSlD9QDgTUCuDcDGojCHKagxmlTWDgj9RdSOUUBoPjNiZUAAO8hsS1CY+wIXyV7C+Q4ab+wdxc4Kq9Nttemw3CEKm3qX/egEyqbH+bCfsPtZJeT0Dj6yXgGoV+pauWMo2RAy9oSghLDMc2+6sf+R1DkctHIJOVkbaRvVHWLuVI6dXIyYGM7Spze7NQeeQwybWmkQBS6gEZrlGiQHX6qQIZMCVSGgIcqoplGUA21bnWSG9YYFILzCeQ+XfsBYwI0wQyaTqRXzSjYRxuIIDTDwdnlDnoNAa5kAM4UsGZT50My6V5aXovStJkKEdaxdBFH04xN5BJkzRCp4c06awQxCPOICgBsqhVQithAIVjlblHukCm0gREcekp3foqWVV92gG4OqL+CVHm6Rx7MZ09ZHoQjCalHdXdNMquOKmZ2JuVdM8cyqRCsLIYCSbV7CqYmAsgkMlLk15pLCHKvN7ZrPlWJid2Sl/9BjLpH4q9FkD9ZD56yNTLiKAz7qnnlj65GmkDmfTqgOZ7ADT9lIHM0xPmBjIVUxpANunkaiQwLDBVC0wTyMRl09jUz8bcuToYVv3eH0488sxNt6vjG5TUQ0Y4APAIZbKJDbNLC6A4UdFZnM7uFBfo+IsTHkc8XpRU0w8K9FExDyWlamLVoFyYsJluWE3JHYU2pBIoBNjaepXJnu06h7CeVj5ik54pZgrI3AvWXuuIRobA3B0Mq+CUns25rsX1OmZ8RQJYjLSpB8HLT5XEnNlZ/9TvKmAT5gZTqAtcYrBkqff6JAO1SvmQWKQ3zs7T/Grz3BDGnUNGcc29ZOkopLv+bzrk9yjZ3i/fPGQSzE12DpkEWLi2CAynXoJEhpMhT9nIzzxbykmzXoCMc3RRaXKTEc6DLXGoEkuMxW3cYwDZVOdaI71hgUktMM9ABkw221cncbuscAaigztuDqNP1ZMZnnmxmxw2CySBhztQqKKzJiaDGRFLRJllVhPNy6WHGVFOrIARpR9aHXl4lVw+kypGlZQmDzYxQy6kExBILYk0BorRr8iIWAX1NjK1VpAY5XCAxbUFWg/bi0tPucRHyUoy97kbyC7qOqqtPQdXJ9HuwbUa2pxWnLYm1IUCGVcppfruiyUgBnsC7pvEunMJALjxKSs9vQo2hNGT+mE/GcZDQD4zVjnBH04mo6JmJIyHX9BjL1CyNpCR8zLAPYab930HMqkh2HuXdOMXsg4oANIwAXq/KGBxCOU+20JBJQA1XEXlPGRYhJdjL9xnW9zb06g6SBbUG71nAFnApJOrkWASCwiiKdAcLIqBxhusigX8BLLfvRcUnBVjsU7XQwYjkXG5OE4JRmAeLaAmkqkq825fLo74hRA8VfsY6dECbjYiLIVPF37A8JBNQhvKFLs4kglizpGBF8OuJ3vWMzwS0g73j3wzNHAyU6IlQQxZU3qo5/bAwNBw3+3Le0vXmRWKEkRzRPaujhsPHw65Hty7/nFd6krpUeq+J/jbYrizQtMa1trLg2Ounto4zadTjRTENfmte6pSQ7mMEY1foCYQuNQYzaWZ6le9sqYqR5XeHyAT18YkdORk9aRFr50ZIFv4o4+h4VKwwPSBbClYyaijYYGEKLMBZIuDtFRTvrbaEpAN3rz19EbbOjHAlLCz9861Ww8VIAvaeKx3bPSLo62lJdVbj94eGHtyIGulLHlt69WRb+507a4orqzd8/kD19CpkggxwLQyPjcvvyAvv3jv9Qk9IIus+vTh8LPOqhgflfSeTKrChBq2TLHpTJOGMxG1BIEAACAASURBVA/GBk81FOTlF6TEBnkXNelTvbImzeg1gY805nEw7LLI6MSenA27ooOCxGXLxd9Nbw+ZMbQZFlg4FjCAbOG0haHJAreAAWTaZON1xl24WSTCGPvkaOfApaZwMbbp2uC+PZ3gIRNEU9Hp8eErLRGytyy64crLZx1lsNRo23F/9MGx9EDJryaGlp8dGzlXS/xnIVXndYFsZm3lHZKEpH33xh7uSpqZ5VHvZflbrykD2bLlgeG7s7NOrF3xnrhseYABZAt80DTUMyxgWMCwwGxYwACyuaCrkobGNzvWFxcXPzvZ+Opo1eWimHD3WqFp7frM6/vqvuto/GZ/0aGU0EDp0drCyv/VmhgkBgrrcia6GjrWBQpiYOXWpv4Cfi2PcgMQxuna2u6nn5ZY6z8d6MirODcqecgEMa7pi4n+AxsxffqBgdEvWq1ScXknRkcvNYUqWoXai0rzEoOVr4KoDWR0GbF3XyZKZqulYlBc4b5zXz55Mux6cPviroLVUC8xwJR/0jV6sS2/7dKdQdfAw3unW7OhXMF5eki6rYwuTY7e3BmrqMHEagGZnkCWPnBt0f7Ltx+5nru+HXx4v3unQ+ZRr2UJAdEb28583jc08Hy0/+61w5tSQxQd8k+Mjlxoy2u9+NXA6JOv73Zs24hGE8Tg6LzdHdcePBgc7r97/Whj5vvCe4LIGm65YI517um6/qB/4NndL3pa82PfY4/eWy6wz7L3rAkXcxMdgRKNGUBmno2RzpBpWMCwgGGBBW4BA8jmCsgO19xsSqtLs+2or3rd1XAuORjwxbwm81lnQ/+mlJpU2/ZNld911hxazVQKWO/40/6MRDEwMr/sxfH6O3krBTF010eN55K9OYcAyLqrYusuPv/kxPnHXZVhNRcVIFuz7eYExabUfU8QdySmabQo2EHRSqIrbSCTlxHz647d95AsBphM6/d95Rq+dmRbaXFV45HbA67+ncnyCiMrq6+/p3NXeUll44k7g2NDx52MMoWIVEdRaUHR7vPPJm4d21zAwqUFWQlBRCtdINMSKAaYIuuvDo30n9hamZ9fVNpy7u7oWHcVW4r1Xlbk5qtDQ3ePNtUWFJRWtp79anjgcK68tsuArLfv3OmdZcUfbDn+1YDr2TGHjMiB9j03hkevn9xRVlRWtePTu8PDZ2tiAcgCk/fcfP708oGmooKKzfu/6H/61bZEkxvIYtemfp4RuxrcYwaQGUBmWMCwgGGBpWgBA8jmCsiO5mTLC4KRRw81f1MbC9CTv6nhzYcp0RJzCKJl14fNLzex3fFCdPpgh6NYDMyr3XytpXi8NlYQYztPVH0YMTmQnasOjWm5Nez65lxN+Mray7MHZFAFQeRRTwwwbTwyNHqtNVKuV2zTtYlHR/LkKp90jX59PN3EKiIErP+od+LBoVxEQO/LiLpApiOQqfH5NvBHCqJlTXZpbiIDMkXznCMDGvvVAkNWhYeGBJhXBoeEBoesbb768v5+2f/HgOzBsTRZ+ZQP77/oP5gD0jbsfzx8e68t4D0xIFAQV+Qdfzb02RaL5CTLPDgwdLk5QgovF6IbLo7e25ftBjLb79M/3xAVbgDZUhyCF/hPdkM9wwKGBebMAgaQzRWQ7UxWsCCosa35T002hiNi0Na25omGNSFBQfApbdjypi0xRAwUTLarneWtoSHbdtYeys5y7UgKC7LfOl1QFjA5kPXUhgtrqvef2pe/KtCyaR6ATBAtNZ9NPD5RLAFNaHBIqOPE8Ohn9bAGyjxkyvKoIK6s+Wzi+enySSFJRii9JUsdgZH1V58P93fsaiwrzE1eG2kizjbJ/tpAJkQ4dl98NDD6cnRsAj4DJ4pAAQZkF+W1XUFcWf3pi6GOMkmUqaTzxXBnlSgyIIOPsl65surc+IOjhSuCLfDJPfJk4Ext0PIAecky4ffpVwwgM2jMsIBhAcMCS9oCBpDNFZDtSJJ3SonmLa3N/y4DWUjLDnbBKv28kVIKYuTRw5uPx8ecOlpUa7HfOpa9MS5zeF96gidSIMfIvMKOvZg4v2kVxs8TkK2qu+hxWJ9r/LvRi/KSKF0eVe9O89NDpgjnBAqmNYUf9Vz+auDJyMvRsZcDX55yRruJVrMsQQwr7R4dfXiptSQ/PSM7PaNg7/WXHkB2Qa6IIIZU9rwAmhTEoLIzL4a7KpHGJD8ZbCALrz0//nzkm2fPx589H386NPZ0yDVwti7EALKoJT34ztnPbqMgwwKGBRaFBQwgm18gkzxkzSk5thj3J9YSwHaCBzW2NV3NT/nqcFaKGHPqWGnzRucfmm24NR6RiwaAMHSATGtT//XtsFrKbeoPSyopz7dPuqlfoUB+yVL2kHW3SECTLf9NjA6QaHIugQyNIwSujEje3NE/0Xcgyx0p8St3xIYgFhwfmrjeylyYkusrov6SL0Cm8pAFmk0ms8C27UsestNbN6RlbUjLSt2QyT42q4BAtiY+7Up6TMwML1kaB8MuiiHYUNIXC7zbZ8P6YgEjzVKwgAFk8wlk7JXDTQ1/amVrlLDsFR0bmxMdAiiQU1P3uLXIxd61DG7dWXelpeJpeSTChGbAK5Dxx15sufJyqLsaVvGkYy+Opnkee4ELfIIYVNr9cuRMleZx/Hp7yJ6frwOkE8SgSHtORoKs/GRAln3oycSVJu1jZnX3kGl5yATRZK8+0l6TCmpLB398O9JdDVwoGVyjLEHMPTwwcWtHogxkQQXHHk8OZGKASdpD1q7sITM7Tg4NfdqAe8gGz9aukPeQmVclZG2IXwXrlewtyxXR9ss5CZnvzeBblutzG2b76qSlMD4adVwIFpiD25MWQjUNHQwLGEA2z0AmvWW5+XZlUvX6+C3FzmenG29lWwAFIvLKvjvZMFxpFQNMjrqGlycarmaaNTkMI70AmRhgCs5WDoYthoNhnx13hsl541uvjXxzu3NXRXFF7UeX+11Dp4rd655igCm+7c7IwBc7y4ukc2Lz4sMDBdFsTWEHtOZJb1k+PLNNChesk147kN6yfHqhfWtJYVlV27k7I2PnNynvMbBjL9yrftwJZ4IYXX/526Fbx6tKpLcs01cDP3k5GNYL4cW33Rl+fvfjRvaWZcmWkzeGXlxvZUfmwkezLEEMdXzybHTwywMNlUXlze0Xr315jwOyLfA6Kl2yZC+WJu25OTJ6/eT2suKyyh2f3X0+dKaavmX5+NyHDYWO4vLm09cHnnVWRruBbHlQ1MGczPao95bNzDlkc3a5uMd9fOQiyEkHVri98adfXvc4TZMmVifgLhykCUAyXt046SO8vVF9pSC9YpI9JRdCU7FcmOpGw5CMytRUkpO2ML/Syx+nr6HaSlTm3NwvTkuc2TCci/tT31ZmtFcdZVZ/OrxaJXZl+Ja9cGHltsokSEAj4cZxzJhdqSRWLibHRzMe4C4Xp/LZ5eKHMopmyAggGa+eZBtjlLvAaaF4j6Rr/Du8j5K/y1IrIxXie5jqw1TqqfA9rwFk8wxkggjnkG3+rqPx5aHyHic5oiwx97uu5htZ7ICMWEf5m666j1e79z8hVdCAdyCTrk46zK5OGpkYHXNdaksli5Jma+6u0zcePRpyfU2uTkLhQnBK/ek7D4ZesB429vzgxkBBDK29wG8Uc41/d6oEvH3SOWS3BwaGXY96bxxvkg8bU84h0wUyMcBktjd2fPnsmYsJH73QAErSM8+4q5O8AJlgTiw/cvXOY+kcssf9Fw5XrzV72FCzLCE8q6XrTt+ga+DB7U8ashs+8wnIBDE4xrHn9PWvv346/ODu9Y9V55B1Xn/wYODZ/S+vHG7IXCnIO/oBy4R1v99waWNSVai4fLon9Seujck/+s/w5JYVUdkrorIt8eVxjs740kurUuSY8OSW/KP/TFwbQ4eJ9OKwopOrC0+uzqhYReO9hOm9y+yWX2fHq1/e+gIZUko/UQz0oVM4p4b09fUrFR1K8+LrV6/cGsK12RSz2JRJMlLJ8rTqw4RKdaNhWYKnfPW90V4MvnAezRmQZcat/KGkpCIqym6xaH4qoqJ+KCnJjFtJjeNHZ6bZIUxbX/1UL0adi8UoKE/7g54EX+Jt1qTKHXs55EqIMq93VhWuY8AHF43DzeIJUebsyr1wrTgQ27aZZjJ6fXhClHnOgMxmrTg/NkGJh10TTm6xhKstaYxzfx/cLz6DQOZUXRZOVfKlQTGNAWRzAWSINQskIIQUHH8y0XsoBxclF4hi74QaHq9YwouWWn/lU2HlFy2XB5hz1234NDvtcEK4VZjO1UnpVWeT6h4AjUVu2Jlz6B/rau7Hl17a2P6ftg9uQHxS3YP0qrM4CiREmQtPrk62B9sTgotPr6HxXsLquQcQZ1LIsLX1Uu7xUoTeIzqxcWpI819Hz6u3nBqs0Fe9/QTINKmCRnKSfeRIqhsNc9L0qrYo4qmVpq8wtRInrTvNfnnDBrvFci0tbUd8/EBubndyckFk5FeZmXezssokULu8YUN3mp1m9KMz0+wQ9q+9uFzSf4T7t4fUhXp3T9s/tN7ZjF4xteYQwyBM8pwBhCG92dKrAM70MvoR7zuQ+SHcSxaGXyr/E43kUImKokBG4/0Ic6VQBaYqzQCypQhkzOXWdOv5yK2GWA930TvBQ/PeoP4A2XIhYNnygOURYZF1tsi10wKynPa/RKRuB/DKPvB3a/oeCIfEOu31j0JinSuisiNSt+e0/4UOFkVd8fC1uHstjfcS5uYeSMlF4godEhjG4BIhuI5g9RPXdCCS+tsoBMAUTjPikiJToG8r/KXK7+5729+W0aMAGfjzOGhjrgUCi1xdEMh80Q2KRtSYFFU9zKI4VBKizCAB11XRPqCqbDQpvRetlEdbe169hSz9bSawALMbcdolRJlRE4xXlN/a/4vsQcS28FGykixDsyJoJdpeEB4vcNTExNgtlr+Vl3+SlFRitY45HCMOR2V09MGEhHGn026x1MTEjBc4aF4/OrOtrReNCdrCV+xXNBJbgVrm7z8P9ivmdediPwPcy5RoB6rtVMMSYDWDJ8xL3uxK2YWmAWQz5yGzWSNOHXIfFPCmzYYestY2OZ6uUbIlSykN68COQjheAGOgOuDWuru/4uA9eQXmfJ3JtnHPXekeF3R3QQy4u6gdbHU9kAb8Z+oEkJgCGYdQuMSJZSVEmSE9LkfC2iioilfLAB1y0milICW3rkqLM4Bs3ufv+VFACMr7+OHE1yeLcNXSoLGZsMCUL7JUdpIxIJM/y6Z1ubjz+L9C4opWRGW/b6vJOfzfQGPc35C4Iufxf9FRrLibAVlx91ruQ9NwYY5X5HGHLVzKLgGagIWViZ9Cj0QAvbCTDKYrWN9RT10IAYgpUCItBXjip76tOp4JAmQEvGi9lCmWrftwklFt33VD1MC8tCwMs6qhcawS9yhMBgQD4Ai6AaQiHUpk1tHjNHnRSjYsaRfkMPmRUhytMjYZlIsagv1pM+FeQIA5SEklQ/jnX39TKsIawpeFvL+WlqaHhdktlh8rKlJCQ+0Wy5mUlLPr19stluTQ0L+Vl9stlvSwsL+WlqIxpW48tc6sNqa69cvOaPZSN6SCAtSAXEd1J1CsTXX2PSwtR1Zlr8ur38G2hW3boQFnnBtMzmI1AZzhUqbvhXpPqfaQ/dDdctMhLZ5abTe7mp/XRoAEBDJbcsbzrppTyVIaRwYEII2yzth3cCN7CryiMFbSwXuyVwzBi9MNOUwvAaTXAzLq7mJhZQEUUAzwDorA7Wg0C6Cb2m/n3N8D1ZFrpzj2aBE2a4UBZPPDQzMx9xuaL0ALLFYgg0GKozHv3jJu7pEHUwXIeCSSOEOej3VgiM6CMIV795BBiZwa7Ks04SEM4bxIZeoRkh6QecCQ1Q12oIMeLKIOesUxnCKWkW1I7EMle9iHpJFz6WtF2YiVKO32Q+8g6qbXZLTuXH19luxBYIoOMrijlUA4/UuBDPaQdSYndyYnQ/jHigpNIAMJvndmtAAtmutXmo/UlqG5wDhoZ5DAyiI+MyrWxzDsD8N9YGz5ckdVtrQMCnvLGKV5+sAgC7wB0LqzfQ6AjDq9KK65gcxR+KarsFVr9ZZDFs4ThpiFAc5u0wEyKa8MgtL/JtujhnvOKGZRCKNhADL0mdHXCFBPTI+q4iMDyBbgpG6otHgtMP9A5t+SJYwIvs9hFA5wNGFDmAIKuAaESz9uB4mSBjPiShbz3EjTFYUnSEbRhE7hdAqUtZKATMIOtl8HOYPKRD1RBwhgYhBFlUc6pHK864Z66hVHLYaaUB1QAjzFygIK/Pzrb75oxSkMeREUUDe9JuPSqz1kRAfmMdKQrIJF6pTi6oh2SIgy45IlsJfdYlEDmXrJEiT43pnVxtTs3lq91KO+XC4wO1oDtGLWngEgc3vFAMI4xgICg31jkAD3nEkA585Ore13mCIXLlmiNPrUDWSS5+yH7hZ0nmF6ADL0P3HUghyGAcwIAYQqvQSQTNNDZqvroSwFYQQyVAn8drjyiICFkim6oXq43Ilvg6o1NIBs8c79huYL0ALzD2T+beqHUcP3OYybe3DQcRODirowDRKA9BvUY4XOnV01hU8ZyCQJ/W0mTZkUCFAxDo8wI00g6Tx1D5niOOREcSXCU4kPtL1HnEqAULBiyFGXP9ik02TzCGS4qX8wNxe8Yntttr02G4QhUr2pH8w4pc4MDSGt5GosuIMFcI0VW0FtGXyE/WT2gYydf8EBGStd2byPAaV3sTc01enVPdP3GIpcPgKZrIy0jeyNsnaJGh68N4H0owtkbFeZ25uF2iLlSK41jQSQUg/IcI0SBarTTxXIoApIaQhwqCqWZQDZApzUDZUWrwXmH8j8O/YCRoQpzWF07oHsdC2MhnG4kZORiZ/CGYU8L3iBS5AgjVODfVX26EiP2JuVMClyMinhoYY0kpOMaTg5FH043dD3A1lQMRTFJk7PBUQgA9ywhRI0K4uz/qszGV604h5xGIFNoNYECuXS0/r6KlmCY1p9LJSzGLVMQpTZv2MvQMiUOrNSUzdq09an2nr2Um8eMs2q0f7JVdbHr9w+ME0P2WIBMqkDs9cCqJ/MRw+Z3m4t3FPPLX1y5tUGMunVAc33AGj6KQOZ8p4B6OAGMhVTGkA2W3O/NWaNsVFs6VlABjKtcy7YvZbk43HsxXLc0b88YNn0NvWz44hyG/KO/AOPIqM7+sOTW/KO/GN9bgM3PPnxlc5YgBF0BU2etuledWWlhk5vFAIgjAs6TD5ml16CwxmdYgqVJk+WCpDJjg0U4ul1k58qiTmF6byrNo6PunnoKYEX1g6KA1JkFOhWks3xuAhIJVCVbG29CmW6mUBPKx+xibMAs4+8fOwuAkyB2OqjZEjmXrOWts3p1ZGz9hwcDKtpTNqv9HqpGlVpLvinoC0OFsaKczX1/StbdlR2ibHjLaQwIzMlEihNWbJkLjQ89oLuOfO9RO8pbZ4bwrhzyKj/zL1k6Siku/5vOuT3KNkLlVa2c39SD5kEc5OdQyYBFq4tAsOplyCR4WTIUzbyM8+WcmCsFyDjHF1UGtiNboODMKrEEmNxG/cYQGYA2WxZYOnRmAlvFifgRSGMhmcRyIDJZvvqJDwfQT4vQEEKOnbjthsEDnmWIolRzk+vOnafeY0TGM7icIgAQgA3q2EywDUGJZ6MhfMfRw/SgM48InSjGJZO6YfWSB5hJbaTKw6HsCuFUoSiYXVxdDELjaCGWtSfqoS1pulppHw0vKQVV3EOIziGUDcZl17mtqlIVhRwn7uh10ZqUydEmWf76iRqN7Q2RmK/kpub9FK1ZbhcUgJ5DZR1AP2Va82Ke4lc72yGTfpIZkx+ehXu3EcCkzoeOdZfeQPAi/CpPsLDL+ixFyhEG8jIeRngHkNq8R3IpKoxeqMbv5B1QAGQhgnQ+0UBi0Mo3OyFqASghozIeciwCFiU5KSBGu6zLe7taVQdJAvqjd4zgEy5RWfG6cHwkM24SReDwAXhIYMhwLhcHKcEHwPu2ZTwoo95jWReLACGRdbxklLv0eK9XJz+QuAAXa+yRrzfFnCzkeJ28lvUvGQ0PGSz5R8ygGwx8NOMt/4CArJ5GVCMQg0LqC0wfSBTy1wsMVD3Gb/LcrFU39BzShYwgGzGp2RZoAFkSw/IfN/RHyiIdMkygOwhE6e/h2xKQ4CR2LDAbFtgKQPZbNvWkP8uWcAAMgPIZssCBpB53UlmAJn5XRpJjboYFjAsYFhgmhYwgGy2cGQxesgEMdBkMouiccGlf73C8JAZjGVYwLCAYQHDAn5awAAy/6beyXPNI5AJYmhJYcaWtUGcj6qkofHNjqRQfd6KzS5+3dV4MzuUy+j/1/Cyjsbe8faR1wdGv99zwqlftC9FCOLqwuyddbEWXxJPJ01k5sXvD4zQz41Mqw8C3UC2XAhrqHvmKs3Xd5IZHjI/x6xp/gY1shsWMCxgWGBhWsAAssnRyoeZWEPIvAJZbNeJ5rv5PLhMCmTRWYUvOuqvZPEZ/bOAIAaVVQ5+39bRnOhwxuc74+2rpgtkG0/tHrnpExtptIjvtTCFpTKFMz55tr/vbEa+Mz4/LYynWy1pPJCN6gOZcqc4YJnHHrLfTfscsoU51hhaGRYwLGBYwLCAFwsYQDatmVtrVpYFLkYg81IdPx4JYmxr48hIcbYfeTWzCOIcARmULlg/fLz/zj6r7wu4BpAZTi/DAoYFDAsYFvDTAgaQvVNAJqTk/6mr+YfuFvp5szdtjeSakjxk64uLi5+dbHx1tOpyUUy44rKy5pdhltGqaMpDQkBYZXXx4LEtf+pq+v5Y9dXS1VYlF01Gw0JAUJDZEmK27WoaGSl1hLCwJcQcHCBlFERrXs6p29sffts+8Lz14qnUlJWKQEEMio3f/mnTvdE9gyNtV7oyM0BDIeHExH627kk/3ze1rpYFBq9N3HtlW9/YnsdPt507lLjWhAITT323/1xTfOvnrY9efNTfV92aGcIASzCXXdg7fCszFtVelfbZd+3dlWY3fmkCWWH5wHebmwuyzz3cPTC240ZPdsb7WJYYnrnx1L3tD8d2XT+fkd2y6Rl6yJYL5ljbzk8bbz/d/fWjxtMf/j4mYHnAcuG9Zcuj66vvDW5qWLNcXLY84HfLYhqqbvd+8EHk74SU1EwvP6SMR4YFDAsYFjAs8I5ZwACydwvILNbS1Pjy1LRbp5oHNyeWs3B8eUJ4sAQNDMgO19xsSqtLs+2or3rd1XAuORiIxLzKWpS0pigp8dyhZg7IonNL/9hRc96RUJK0pqag4PnpxmuZIcgxmgHBuvOhmp+UPWTW9M8m9tzoyKosWVe0KbvjUXv/qfiVIMcUvau/fbC/orUmsaQ+78zgvoHPUxkzCStTihKLShLbPv9opL+0poSFi0rWxAdJ9TLF7X28/9Ht4sbKxLJtxVdd+746GCuvMAoMyO7crz7WmlRcmXno7kcjQyW5JnaFUXBZ5ZNXW1tiJQmCGN6weehFTRkYCpTRBbK2W5crt1Ullm4r/WJs34MOm7zlLvj3Hw+1918vqCtfV95W0XV/mxvIAqN39u7pv1G4uTyhuLHgwtMPr+2KNMmrlmH1n7fd7U6yLlseELbuaF9L9+bQgN8tE6cPZMbBsO/YYG1Uh7PA4j0tlquI8dWwAFjAALJ3CshkkhD195AdzckOlFxEYuTHh5q/qXW7iBj3iKEf7eWBLH9Tw5vdKREyuAQlrIsvjJkMyExxKXGZWXHFJ7aNuKobs1g4MysuHt4nMJnDVwUFBwSGBDO32ZrtjSODhemgeWZh3/etuxOVsgrLH31fXx8mfZXU016yzCt5+H1jE/jtBDGGrZOWyOukAGT7rHIrpzjufN/2UbIk0GQ75tp/fXuYZI2g6ivtgz12j81zukC242CmbMOkA63PnxVmgfI5xf0TW5qixffEgMDlYvqRNjeQZRf1vqjfEiG8J4iBy4WorXVPHhdkAJAtW25KyPpssOlg7sqNRxrvXslYJ/5OmD6Qrc9tmO2rk4wx1LDAPFpgtu9TmseqGUUvWQsYQLbEgGxnsrwIKAY1tjX/qckGMKGQnAaQReeW/qmj5lJp0qb1sWmRIWYFj2hGzbAgxrZtHRku3sg9FVbm7t9879t97iXIb8udEm+ZqqpHvq8u1zt3Q3MPmSBa6jePjEsSoKCC8oHvN9eCr0sCsp5NJnkhMjz13Le7juQB8AVkn9o9cj+HWWBlypmJPR0lSjKQowlkBWUD322WGVEQV27e9PxlZbGkvLmyauhFZYkYwC6sXC6Eb6mTgWy5sHJT7dOhEkewaWWwaeWKwBBH0X1X9QdB0qolW7gMSP5w873bDVce129PERmNTRPI5uxycY9bIKdy3RBc3fjTL+5r/qY0BHu5ggYka97So/kIr25kN2Yq15+DMvR+SbhPc0pKYmIv2qoL0tQcRS3kAL1sdPp6ejfaHNw4Pv0qeJEwzeP76Z2VrTvb8dpKm5XcWVmZhAroxWOCmQ1wl4tT4exy8UMZRVYTjZxmGK+edI1/x11kCZLxHknX+Hd4HyV/l6Vyifg0lYFbL/HqTKZST4XvMg0gW2JAphx7IYjmLa3N/+4DkAmBoRUVBff2b/6uo/lNV9N3+/LKJK8Sh1nqr5pAJohhldVPvt/Zs8ueI7nN8g83jShAFlRTO/J9TZlalExIWpv6BTG8sX5krCwfcznLnnxfvxm8cRKQnauRHFqYQJFmyirq+37b9njRUl3zdLyyGHeeyQm0NvVLQFYnCxeDN9U+f8kgzCSIQVXVFMjYsRewh2y5EFa/6enL9mff7h38du/g+J6B8T0DrprqlQqQLRcC4jM+fbaj72pG/LLljMamA2SJa2Pyj/4zPLllRVT2iqhsS3x5nKMzvvTSqhQ5Jjy5Jf/oPxPXxtBhIr04rOjk6sKTqzMqVtF4L2F2SR8hGOni5Le+8MT0r1imszWnhvT19SsVc2rHJgAAIABJREFUHUpT4OtXr9waws3Q3C3X9BJ0KlmeQUl9vViGe0S15R7JYom2ZWde00vHufQL+eucAVlm3MofSkoqoqLsFovmpyIq6oeSksy4ldRcfvRwmh3CtEuon+rFqHOxGK3b6PUkcPG29Cp6pzg8BeraJnEYhAHU9OI5mdP5Sq8PT4gyzxmQ2awV58cmKPGwi73JLZZwtSWNce7vg/vFZxDInKrLwqlKUzKsAWQGkLktoLlkiRwjBARZVydePNLsqo7BSC8BHSDL79wzci8nXoYecVVTAwKZykMWGGQ2BaHDzF8PmTaQMQViPhrYf/ujmNJP9z7pWidvp8Ma6XvINIFsMg/ZB/XpMWn4SYuIEBQgWxZc2tVy51LlmYdNx0qCpushS686m1T3AGgscsPOnEP/WFdzP7700sb2/7R9cAPik+oepFedpSNF4cnVyfZge0Jw8ek1NN5LWD3NAOJMyhO2tl7KPV6K0HtEEYdTQ5rqOnpeveXUYIW+6u0nQKYJEDSSk+w3R1JtuRpxRXBPF9dXarrpa+7FaN1p9ssbNtgtlmtpaTvi4wdyc7uTkwsiI7/KzLyblVUmgdrlDRu60+xUDT96OM0OYf/ai8sl/Zu4fcNSv+rdPRWn0XpnswaQrcur39FcuE52PjFo21GVbTXZdOLVtfM7xncg87sIzYwMv1T+JxrJoRIVQoGMxvsR5kqhCkxVmgFkbhzBmXhGAvN77MXp4829To8dUWKAiZ5D5qOHTBAD12dln9hoVV6QDKzc2vTvzQnwFQwV7jh08ca1PfmRnN10gGzjJx+O9Oeug8SCKb9rtwxkYoBJ2kP2oR2WFMWg4grm6yJ7yLJO7B75Mstj35sYYMop/prsIYumZ2148ZBJbq3Efa0jfY1XvvnwRIHneiV7OhUPmRhgylX2kLElS9UesvHqD4LlPWSmiIiM9PBwZQ9ZWHHZrYG6ZluArXXTnTtFeZbp7SHLaf9LROp2AK/sA3+3pu+BcEis017/KCTWuSIqOyJ1e077X+hgUdQVD1+Lu9fSeC9hbpqBlFwkrvohgWEMLhGClwhWP9HlBpHU30bne5itaUZcUmQK9G2Fv1T53X1v+9syehQgA38eB20JUWYKi1xdEMi862Zr65Xr4ukCwbVRUset/b/w4Eh19rCVIi0hygzVVwsE/WnpXlRVHm3tefUWsvS3mcAszJjEaZcQZUZNMF6Bb1YFiMQG8lGykixDsyJegGy8wFETE2O3WP5WXv5JUlKJ1TrmcIw4HJXR0QcTEsadTrvFUhMTM17goMb0o4fTpgRtwVDY2WikqlmZZf7+82C/Yl53LvbboKNMITC0A9XWe5gBGVmRhMRIYPJXhcP04r0X4eNTmzXi1CH3e/1v2mzoIWttk+PpGiVbspTSsL7qKIRX+zFG1tyadPDexN39FQfvTcDa3/k6k23jnrtj7Cu6uyAG3F1UW1tdD6QB/5k6ASSmQMYhFC5xYlmwEHl3fxIuj8LaKHjgcIES6JCTRisFKbl1VVqcAWTvJJBZWnc2/XFvzpY06S3L+FDgJz0gE0RT7Oo1+Jbli5YUKbwm2cK2Xq0rrvz3U1Vn8m0lSWuq83MfnWr6umgVspcgBlf2SP8n52r5JT+tPWSCaCkq//r7D68eyygtS2o4Un/x61Y3kJmidz3YJ71laS/ZnHd2cN+TK9JbljK9idamhqGJ5kN1dukty7g4qJcp9qNH+x9/WdxYaS9rLr7i2v/VgRj6lqW+hyzAZMu9+frAqKvcSZX3cjCs3pKlGGAKth0dau//wllXlljWWnH2Qat7Uz97y/Kje5fyaktsBdVZx+7t6j+fZAUgs8Qf6Nt5bW900LLlAe9F77ix7cr+uJXTWbJ0Hv9XSFzRiqjs9201OYf/G2iM+xsSV+Q8/i86ihV3MyAr7l7LfWgaLszxijzuODteKTvDaAIWVuZ4Cj3SZN/b42Q/62FmgqUc9SyF8z0SCZRISwF0+Klvq44TggCZjpdO4QymDycZ1faiG0KbxEYdUC8ADoA/kA+giQI5w8JXVl+0mFXiHoXJdAUS49vaWOneVLUya+A2PkAuKJE2BGcHbEeoCGoIjULbblLJUMrPv/6mWEbSh9SR4jg10V9LS9PDwuwWy48VFSmhoXaL5UxKytn16+0WS3Jo6N/Ky+0WS3pY2F9LS2muqfZwzabkukTZGc2u64ZUUIDLpWZNlkCpONVZL6wPZMRD5gFkGvF6wv2IV3vIfuhuuemAf2rbza7m57URIBaBzJac8byr5lSylMaRAQFIo6wz9h3cyJ4CryiMxVgNuAfBi1MYOUwvAaTXAzLq7mJhZQEUUAzwDorA7Wg0C6Cb2m/n3N8D1ZFrpzj2aBE2a4UBZO8gkIkBJnNs0qV99f/WyX6jvNluD5F8TvpAFtS03f0rBw8ku5gmvYEYuKpuU+mz441/6mp6fbzmdm1CgqczaU3D5a+HnvZsTkBKU/hJZ1N/SMaO6uvPPno6vvOLs+lZLZvdQCaIQasTdl1ovu/a63EOGUo2Wzefb/n6hfRCwPebN0G9BDF4TeIedg7Z3iea55Bp7iGTlWSrlo9P2TwO4vdydZIXIBPE8Mzsjns7Ho3tvHlhY36rsodM2uNvjrXt+HTrV892PXjS1HMiLS0UziELzDi09UF/Yd6KZXAO2crcgs+/rtu5QfT/HDL/gAwGKY7GvHvLuGlGHkwVJuCRSEIKeerVgSE693shCV+AjEtDPWreYUgPyDxASkIZigsIi5qMhU/BRGg3zcSyGYm55BhiNN8FejEjR13gG0OXIeqm147UIKAhauWzZA8CYwirdB6u+UA+/qVABnvIOpOTO5OTIfxjRYUmkEF233s4WgDLpf2TRkLY3axS29HugY/wVwfaGfKysojPTC2ci8mu3Nu6sx0+uHap3iu2TVrB1IvnZE7nqxrIqNOLPnUDmaPwTVdhq+ImpKVzyMJ5whCzMEDzShZmG8uYU01xlXEJ4KsmkEmkJYMgFaXGLAphNKze1I/chmpgemRHfGQA2bsJZEgwRsC7BVZvvPpq99FcrV3/3jNqPZVP6te/v5K9gCl96EWW7y0XApYtx890N/X7t2QJI4Lv05Xe5ITTGC734CqP2xdC2ALKxUUrtqwjzUxeSIKbrelsJ2slORuk2Z1tzUGkoDJRTxwKIYCJQRRVHqdYKgf1V5xDzDvy86+/YWJOW2o3PR3YTKAyEVWMc7GgBQCSaOleVXX7C6W5h2mOoIAK6LUjlIXpoZqKEXyTrOJaH4EMlyyBvewWixrI1EuW0FK+93C1MWnbYbfR6roeluRyQYtQu8nNPRUgw9Jt1qTKHXtx+RK+AqhVpidVKlvK9OJRzjQDFLlwyRJl0qduILMyz9kP3S3oPMP0AGTIMRy1IGZhADNCAKFKLwEk0wayuh5cf8SA+iUA8NvhyiMCFkpWe8g4UJNXPFXIaACZAWSzZQEtZFlYZQniml3NI8MlOXRL3DTUXhBA5t+mfhhKfJ+uuGkGstNInNHxEQboI5j2cL2GsIXHpE7new5xMAvIZ18ByKT5vr/NhAkondC5HxXjSAgz0gQSu3jTDYRI27Dkjdu6/EQcQnwRfgEZCAGEghVDWmV4yvmxEBw5wMI2wgCvoeQHomAxZcn+Ahlu6h/MzQWv2F6bba/NBmGIVG/qB/2n1MPVTUm7hH7XnTsgYxoqm/f5BmJLlmxTv4/xXLIpfaXI5SOQgXzYRvZGWbuUI+U9ZPKxHbpAxnaVub1ZqDBymORa00gAKfWADNcoUaA6/VSBDKqAlIYAh6piWQaQzRYizOOm/mkgxWxZY2GqJES09u9/cHyNeYbUm0Eg83/J0r9jL2BEmNJ0RScnyC5RjuxloWEcbuRkhDa4+R5leiEJH4FMoUP2ZiVwAycTAYKqRyNRGZrAFyDj0ugCmUQkCKO0FLX1qKH0BKIErCkG8BFWkHukC2SMGt2eM5TDpafE7KtkVfW91BHLTYgy+3fsBUiYUg+HLLQ6tEtQbZXOxrbqqy1Dc3G9F4pgCaayh4xaQw/INPeZJUSZ9eKpzKmG/QYy6T+FvRZA/WQ+esjUy4igNu6p55Y+uUppA5n06oDmewA0/ZSBzNMT5gYyFVMaQDZbCGIA2QxRzmw10CyotyCAjI25uQ15R/6BR5HRHf3hyS15R/6xPreBG578+MpNM+CYQY+LPEPTbenKogydySh5QBg30zD5mF16dREnLUokVJo8Lypzm+zDQCGeLhn5qZKYU5hOsWrj6Olma+tV4M/tJqHacmK5KoMOIIGRk1tzJg1tqydQs3RdVbWsgR4valVeE3lN2V1BsM+UUU9SwL2QLbnc9OrINcEcHAyraUxqFr2uqwYymoshiGrHGNegXGW5rzZrdHZ6NETSJUu2V6wyb73kEqOUphfPiZ3OV5vnhjDuHDKKa+4lS0ch3fV/0yG/R8n2fvnmIZNgbrJzyCTAwrVFYDj1EiQynAx5ykZ+5tlSDoz1AmSco4tKk5uJcB5siUOVWGIsbuMeA8hma743gGwWiGe2GmuGVF0oQAZMNttXJ+FRCLDRCumBjuy4w4Y+5eYnlPPTq47d5LBZ8EzIwvu24nzP+RgwGeAa4w9PxsI5nro65IFSYQLcK4Y4yJETrRQ6wNS6oTJ0Ixc33TINFTblRCGdQHFoGSqNqz7VU7N0GvkTMSNnDQ4juDZStyOXXsZZyfI+SlaSuc/d0Gs4zvjwdbavTqJ247oQHmCBDUS7rtoyKAoqKCXgziFzf9WsLBe53tkMG8XoMf2sL7FlSrbfH04gw1x68ZhgmgE8/IIee4EytYGMnJcB7jHcvO87kEn/Puy9S9zvpT6sH6RhAvR+UcDiEMp9toWCSgBquK2N85BhEbAoyUkDO7jPtri3p1F1kCyoN3rPALKA2ZrjDSCbIcqZrQaaBfUWEJAlRJmNy8VxSvAx4J44FdeUjxmNZH5YQAGyDD/yQpbFe7k4/dnA8brf1jAyUj5Dt9PiMovhIZut+d4AslkgntlqrBlSdWEB2eIaiQxtl5oFpg9ki9diUHfZYUncpYu3RobmM2KBpQVkMzTvLnAsMNSbFwtMgcYEkR57EeBx7IV0keXvlvm/qX9GxgVDiGGB2bbAUgay2batIX+RWsAAsnmZvI1C3z0LGEBmXqSDoKG2YQHDAoYFFoIFDCB798jAqNG8WMAAMgPIDAsYFjAsYFjAfwsYQDYvk7dR6LtnAQPI/B+GFsJvU0MHwwKGBQwLzK8FDCB798jAqNG8WMAAMgPIDAsYFjAsYFjAfwsYQDYvk7dR6LtnAQPI/B+G5vdXqVG6YQHDAoYFFoIFDCCbOzIQRFOgOVgUA42XPd9FCxhAZgCZYQHDAoYFDAv4b4ElCmSCmHNk4MWw68me9QyPhLTD/SPfDA2czJRoSRBD1pQe6rk9MDA03Hf78t7SdWaFogTRHJG9q+PGw4dDrgf3rn9cl7pSepS67wmeBTzcWaEJHNbay4Njrp7aOM2nU40UxDX5rXuqUkO5jBGNX6AmELjUGM2lmepXvbKmKuedTu8/kC1bHpKXnVwZE7hsecCymTv2wjgYdiH85F0KOizeA1qXQusYdVxEFljKQDZ489bTG23rxABTws7eO9duPVSALGjjsd6x0S+OtpaWVG89entg7MmBrJUyTKxtvTryzZ2u3RXFlbV7Pn/gGjpVEiEGmFbG5+blF+TlF++9PqEHZJFVnz4cftZZFTMjXCIx5YQatkyx6UyThjMPxgZPNRTk5RekxAZNs0S9sqYp9t3KPgUgWy54nEO2bLn1cHvtxYwVy5aLMwVk63MbZvvqpEU0zBmqzp4FZvsKo9nT3JBsWGChWWApA9nYJ0c7By41hYuxTdcG9+3pBA+ZIJqKTo8PX2mJkL1l0Q1XXj7rKIOlRtuO+6MPjqUHSn41MbT87NjIuVriPwupOq8LZDPLH94hSUjad2/s4a6kmVke9V7WzNZr0UpbQEA2Z5eL4xWQ7Ha/qVw3BJcA/vTL1K7ww9HTy20zIBkvH8QscOcjdykk3MCItaBXTGJ691NyRSYVO6Uwd5HllPL6mJhe+uljFi/JvJg6Ico8B5d8e9Ft+o/wxPzZOKXWu+lmQvmkyh3NhetMKIrdI76F3WXJrrOsTJo0HhPMbIC7XJwKZ5eLH8ookm5Ap/HTCePVk+qLLEEs3iPpGv8O76Pk77JULhGfjiaQl+rDVOqp8F3mUgayidO1td1PPy2x1n860JFXcW5U8pAJYlzTFxP9BzYiGaQfGBj9otUq8VneidHRS02hygpmqL2oNC8xWPkqiNpARpcRe/dlomS2WioGxRXuO/flkyfDrge3L+4qWB2oSMs/6Rq92JbfdunOoGvg4b3TrdlQruA8PTTmcZ0qa/WbO2OVjEysFpDpCWTpA9cW7b98+5HruevbwYf3u3c6ZB71WpYQEL2x7cznfUODw64H9744sik1RNHBW1licEz+h503Hj0acj3svXW8KStMyeXFGtRoXFgqqzW35cKXA66Bh/c722RDsXoVdQ+PXazP3XX+3vDTp4M3u3elhcuQqleWYKk9N/ziswb3Om9o7cXnwxfKLd7pNvA9s2VFsOfHbBbEQNXH7R5blrjR9XHd+Md1riObXEc2DR+qGTpYM7h1XeTvlqekZvr+b0xTJq6NyT/6z/DklhVR2Suisi3x5XGOzvjSS6tS5Jjw5Jb8o/9MXBtDc6UXhxWdXF14cnVGxSoa7yXMsYXN2fHql7eaJMQJkVL6iWIgik51nBrS19evVHQozbivX71yawiXQHMXWlOspJLlmXvat9xQmZxZZurrnAFZZtzKH0pKKqKi7BaL5qciKuqHkpLMuJW0an70NJodwv6ZUZ2LxWhdiK4u0Y8Y2kv9yO49C9wvvo0AGdAYcBiE653R0vWOjNLU8d7lT+kpvT48Ico8Z0Bms1acH5ugxMMu9iY3gsO13zTGub8P7hefQSBzqi4LpypNyZJLGsi6q2LrLj7/5MT5x12VYTUXFSBbs+3mBMWm1H1PEHekub/RogAERwZ6QCYvI+bXHbvvIVkMMJnW7/vKNXztyLbS4qrGI7cHXP07k+UVRlZWX39P567yksrGE3cGx4aOO9mOMSEi1VFUWlC0+/yziVvHNhewcGlBVkIQ0UoXyLQEigGmyPqrQyP9J7ZW5ucXlbacuzs61l3FlmK9lxW5+erQ0N2jTbUFBaWVrefujAweyZXXdvWUFwNMgUl7b42O3Tq1q7y4vGbXhV6X6/wmeV+dF2twpqZfpbL6znXsKCuu3HzgxiPFUAqQfX2961RjeVlJ47FrgxP9R/NNkqH0yhLEVbWffTN0fjPsDhTElWXdY0OfNSCF06IxLIiW6k+/HR598XzkW+XzzVDP5hXCe96ALHiVwx5XkJh0/kDtl+Vr89fF5CdE58WGBE4DyNKrzibVPQAai9ywM+fQP9bV3I8vvbSx/T9tH9yA+KS6B+lVZ+lIUXhydbI92J4QXHx6DY33ElZPb4A4/W3un+ya2W1tvZR7NNN4j6RTHaeGNMV29Lx6y6nBCn3V20+ATBNcaCQnefocCV43zg/nvaZ+PKVV8CM7l4WamnvUnWa/vGGD3WK5lpa2Iz5+IDe3Ozm5IDLyq8zMu1lZZRKoXd6woTvNTjP60dNodghzTaNOoBnD5ZK6q/zDYHF5yNY7m7dVJtnW5dVTIOO+pldt21GVbTXxyZR4TRP5F+k7kPknXy8Xwy+V/4lGcqhE5VAgo/F+hLlSqAJTlbakgexcdWhMy61h1zfnasJX1l6ePSCDaVsQedQTA0wbjwyNXmuNlBBBYIunE4+O5EF6xhlfH083ScujAes/6p14cCiXEEDOkQGNPWRyWXoeMh2BTI3Pt4XLaljWZJfmJjIgk6WxdyA0ygoMWRUeGhJgXhkcEhocsrb52kTvftn/50X5tAMDo3faEwKkeonB+SeHRy9tBdzxYg1URh1gZT34OFVeR45rvu62oeQh+3pXklyRpI8ejPYeSJSq6aWsVQ1Xh5+fLwmWNDSXfPLsxWf1VnW5NEYQA8MTNqalb0xLz4LPhrSsDQlRglcgkzaTBczsHrKc9r9EpG4H8Mo+8Hdr+h4Ih8Q67fWPQmKdK6KyI1K357T/hQ4WRV3x8LW4ey2N9xLmpjdIyUXCAiJd0MQYFik5nGAuhJVBhBX1BEk5AyiBZmTSJFcHU6BvK/ylyu/ue9vfltGjABn48zhoY+4EAotcXRDIFO7c2v/LWyRLj3p5Lm7u7nsr1w4UI7WmDkVaQbpgikVoRqqVQTmKDbf2vJIV6G8zQcVpiyjJMtx6EkegFyAbL3DUxMTYLZa/lZd/kpRUYrWOORwjDkdldPTBhIRxp9NusdTExIwXOGhD+NHTbG29aEDNRqeRpAuxBupvY3///vNgv2IE7CoSo3eUSctn3o1ALY/ZsVJ6Tc+ZDpPRBtXUHFbSX53xaBEsDgPeSQuf2jwJDONRznQCNmvEqUPNP3S3wOdNmw09ZK1tcjxdo2RLllIa9r/mKKS5UA1wa93dX3HwnrwQdL7OZNu45660LoTuLogBdxfmZWLreiAN+M/UCSAxBTIOoXCJE8tKiDJDelyOHJWWOEFVfIsO6JCTBsXRlJAXdabFLWkg66kNF9ZU7z+1L39VoGXTPACZIFpqPpt4fKJYAprQ4JBQx4nh0c/qYQ2UcYayPCqIK2s+m3h+uhwhwPu+Ll0PmY7AyPqrz4f7O3Y1lhXmJq+NBB/SpGUJEY7dFx8Nutzrp4MniyCXnvKCaCrtnhjtrlYf/+HdGqiMOiCVJSOdGGAq6XoxerYmAOCSLVleqpTQSgwwhdVeHHx0ciNbRvRmeSF625XR0eMFzFUZkPfJo9GbDVbv65UmkfEl+6j8YRoxnpv636NA9rtpv2XpPP6vkLiiFVHZ79tqcg7/N9AY9zckrsh5/F84IiREmYu7GZAVd6/lPjQNF+Z4BZ4itXDeIJZYWUak0CMl6+1xMqcaTE56S0jIGThdQYmcGuxr31bq/GCS2XJq724rATICXrReCt8wfTjJqDakweqAPvhVfqowGVObVJxN5z4AmYe5rFt7zmRw+mACbWXIMhxu1AMgAGXUpv75198AT+kjztTUUAlR5r+WlqaHhdktlh8rKlJCQ+0Wy5mUlLPr19stluTQ0L+Vl9stlvSwsL+WltKMU+1ptEfZ2jqgq3BNU3ZGswt5EDNnQK5qCEZ6RnA3olUSq9m+qkcI3FRhbDu9zg+6kRZhJVIbQphDKwm83FvK8KlevFqg3zFqD9kP3S03HfBPbbvZ1fy8NgKEI5DZkjOed9WcSpbSODIgINfLmnTw3sToWN/Bjewp8IrCWNIjySuG4MWpjRymlwDS6wEZdXexsLIACigGeAdF4HY0mgXQTe23c+7vgerIq6iKY48WYbNWLGkgO79pFc7u8wRkq+ouumkGQHv0orwkyjhDCasXQ/0EMh2BgmlN4Uc9l78aeDLycnTs5cCXp5zRbgTRLEsQw0q7R0cfXmotyU/PyE7PKNh7Y8IDyLTKEsSg8nMTo2eq0PIYEERv1sBk6gA1lBhgKu58MXquFrbiwR6y8iB3XSC797IEcXXz9ZcPP3aIYmDGoScjX2yPkfBOXTSJ8X0PWeACBDIYpDga8+4to3MMjok4fUqg4N4oBtwgz3Y6MESnTJggcT6ToYfMgviIU4N9lZJR/wT1qEFGpCvUHAJUTyoZ4uW80ryLCtAsshClgupHjM8mAzJ1LolWt/aTdyAwDQRQGWooDq2kpnGv5KIFuGQKv8ptR83I2YoCGewh60xO7kxOhvCPFRWaQAZCfO9pqCctnTYNjffsQoxjqGVoLqg1ukg1jMAakRkBTY0FoUpeHlHgk5Jp/y+gTKo5bURIUHbmNU0JYUQu+au0o5/uFYMdZuq9ZXTnmVqsHzFqIEM3WEKUmT51A5mj8E1XYavW7n4OWThPGGIWBjiFpwNkUl4ZBKV/OrZHDfecUcyiEEbDAGToM6OvEaCemB5VxUcGkMmLWQTItDb1X98eLU3J3Kb+sKSS8nz7pJv6FQjglyxlP013iwQ02fLfxGjw7lDOmG0gQ7AQAldGJG/u6J/oO5DljtRashTEguNDE9dbbUrtIuov+wJkKg+ZKchsDhLRa6VjDVRGHdDwkJ2pJh6yi1pAJnnI9Mta03Zn5MGRVDF1T+/L69LZKOpyaYxqD9k3z0f09pDNLpD5t2QJI4Lv0yQ3f+CA4p6rlGUmfEvR/Ytf4RXMhYtlPjqQKCXQWVbWCvxDslcMJlSYWX30kMlzJ64xQRVwauemYawyVgcnYPUj1BYIAGXSOVidi80NOvbklPGQQzyCCtLpAhnVBKmaUgXWDgO4ZAnsZbdY1ECmXrKE7L73NKgg93osmhGV0epCDMgQubgeqwlkmkZQN4eX9sVH1HR6bQfKqzWneSGNL0AmNXFS5Q75LcvKdPc7mDardjxab5oBily4ZIky6VM3kFmZ5+yH7hZ0nmF6ADL0P3HUghyGAcwIAYQqvQSQTNNDZqvroSwFYQQyVAn8drjyiICFkim6oXq43Ilvg6o1NIBMDWT8sRdbrrwc6q6GVTzp2IujaZ7HXuACnyAGlXa/HDlTpV6PYxvMdfaQPT9fB0gniEGR9pyMhEiY6ScDsuxDTyauNGkfM6u7ZKnttTLZq4+016SC2tLBH9+OdMtMI2muUZYg5h4emLi1IxG0FYIKjj+ZHMjEAJO0h2yfsocsyHlqZPRiI+4h07MGpR8uzAzluYfs4RF5s52ehwx273kpS1j30Zeuvh0lO2+6+rYn8A42TgHJRB57yNgGMt09ZBpAdnBv7ZUsdg7Z9Jcs/dvUD6OG79MkN73hoIMzpXoawzT0EUy34NOiMr3wCjddYYkgn30FIJNwpL/NhAmoTMocqBhwDy5HpgD0AAAgAElEQVROYUaawAvZYDKclWlN3epN6iFTASunGBakVgaMQy2AkAGmRkBB3ahZQDI1DmVfWm5ClBk39Q/m5oJXbK/NttdmgzBEqjf1g5Ap9TSoPoN1xUdIm0a/Cy0gIMNORW2opznXw+H/gmaEMOch4xJIT9mmfh/juWRT+kqRy0cgA/mwjeyNsnYpR0pLlkg/ukDGdpW5vVmoMFKO5FrTSAAp9YAM1yhRoDr9VIEMqoCUhgCHqmJZBpDxQCYGmIKzlYNhi+Fg2GfHnWHyHBzfem3km9uduyqKK2o/utzvGjpV7F73FANM8W13Rga+2FleJJ0TmxcfHiiIZmsKO6A1T3rL8uGZbVK4YF0Em+ald/2eXmjfWlJYVtV27s7I2PlNsVDWZEAWXX/526Fbx6tKpLcs01eDT8jLwbBeBMa33Rl+fvfjRvaWZcmWkzeGXlxvZUfmwkcQNcoSxFDHJ89GB7880FBZVN7cfumL2/d9AjJT8t4vXWO3Tu0sLymv3nWx1zWKtxd4sQYqow6wevX2nj29o6yksk56y/KYQ77AwAuQeS9LENd/dP/lzS/vDd/fv27y9Up5D5kvG8gEUQ1kwZsba4a2pX2QGJOXEJ0btWLZNN6y9O/YCxgRpjRN0kkRstNFMRrG4UZORoADsQAeoUw1JUxpDxmRxt6slJdKPT1GVCBqSCNRGXwKAZ5spPM+EHQoPFGygbw+LVkyge4VLrlQVSmayvgNZMjEVH81GUCh8Ne/Yy8g75R6mlJTt4OTNo1+F/IGZFzVoL9pGkHdk7FEL4+ofHUyuUbkH4H+GqF5/7/2zv4riivN43/GJmJVh24CNMP7O0yDvAZQEenmVVgIBEXehCjGd40x6oKKERMwmxhfowZRMRAVutuJQTdnZ3PM2Tmzu+bMmczMbuaH/DD/w55bt+rpp29VN9Vv0ND3nDqe21X35bnfKut+eJ5b99KcOj1kNDP9l36Jic94P6/Oqf+M30Am/UVBPgvAfjKdHjJPs7VgTj0T+mS6ow1k0qcDmt8B4Pw+A5nynQG1wQVkKqbkQKYBZNLWSe+TrZMWFu1Ox6WhchSUNKXVDJ+R1tC6j7ZOAkoQYkt3nLl17/Ez4pZ0Pjm6OVoQEzon2IlijqfPR5oIkMmrYd2cnZ13zExdPdnnWkPLCz/R5kxFPaM3Hj2S5tTbJ7qpkXjNM+pxhdX8vVQomDa0HP/81kNpHbKH0xPvv51ncnMLabYlJG0aOHdr+hvn3P0vR7qruyd0AZkgxmbZDpy7/vDhE8eM5jpkWmqAwuoE6dfEYM3g5M1Z59wMWYfMtbCZtA6ZOmTpXXnaRPmhGbtz8c6hKnWLWmf0zuhXA9n69YY3Un87Otg6d6Tj8ZG3ZztzjQEAWUG6adkWhoUv2sCHAf4YOqiAY4BAjPLtHoxnpBTiDJqGOsmgy0yH15pDhmuTRzUlm+yBgErcgYzxTzAGMwMkfpszQMYUpFepDvIwr3RcnlaPfnrpoOuSbXRamtRPYM7VF1lPbWOQjxDuCJMTdKNGugLK7jPkvHjIlmdhWMvQlMLTLsAC4708Qkx/6SMKAso/lXuxpAhQEN9fL7eeXgLxte+d54efkV0PkJG5Ym1by+hHo+jLSk/n8SMdYNriPiGMWYcM45orZGmtx7P+r1nl7yjJB5X6PGTkDi65DpkEWBBbpAynDkECw8mQp0zkJ/UrC8Z6ATLG0YVro8LiaXA0DSaRzNDc5v0RCmRaA6pMZviSEEfCcFPHtkBQEl/l6TBRgIImXTZs5UwKCMjILpbkCELIkr4ClmHrJGaKFYxY+OUO82PwVTyaUu6RFzV4Mbr3/PcAZDBG0oUGsO8KD1eQjbo3CMYpQMYMijQnjJHSC504XfAsN2jdJyDDvWBmO4F5tBdurh0JEOW+3+3FHaSWgyx0aQa3k5jM3GdKQT1MfxlAgbugZHOtjuFJQHxnIR3qrZOwgHDv4CTcdNAKHiGmv/h201JSBtkT6V0EL/fXyyX8lGreO1z2Z/eHnymrB8hIB8lSZGQOGV2BDO6Rp/OQIcAELH6Bl72AOrWBDK2XQd1jQC36gUy6p+S7SzzxC1iHGkBrgwzg/cKAxSAUTPYCVKKgBlFUxkMGTdCgJFMbNcO1tsWd/T2qhWSpefY7HMiUqJyngTyr7/qThevdWW7uIk+Z+fkVUQB7/lbEAKnR8AKygnQT31wchgSdCdcwr+COzoKrOpvCImRlDf+O1bu5OIPv/nWflwofBVxspLidwsc2PZZwD5mGYwwP6kLM1g8eLN4/3QBRS3yVp8NBgTAAMkJjOhchU4UsDetl91gwPWR6/vPzPFwB8BuB8ymiNKEwij2CEdV93tlwU4AD2RJAFg7AwW0IewU4kPnpXAm3F2IE2hO4hywCReNd5gqEQgEOZBzIuAKBK8CBjAMZV4ArwBXgCgSkAAeywAdjXgNXgANZQK+hUPytyevkCnAFuAKrSwEOZBwmuAKBK8CBjAMZV4ArwBXgCgSkAAeywAdjXgNXwCcge8N9L0u64EWQl71YXX8Xcmu5AlwBrgBXgAMZhwmuQOAKcCAL6O9C/iLmCnAFuAJcAQ5kgQ/GvAauAAcyDmRcAa4AV4ArEJACHMg4THAFAlcgHIGMLwzL/+BefgVW7yKxy68Vb5ErwCjAgSzwwZjXwBUIOyBbhq2TmFcJ/8kVCPU2SlxhrsDaVoADGYeJCFJAMMQajKYQLDMbXkC2bJuLu+0C6ct2Q/I223+VdxL09SXL7PSHi9OaNded17wEu22SvSaVraZxhfJi7lqXcDa8SSU+7yVNNp1cqlq83SFs1whbW3qpnF6CfS2XzKkngxfZl2ejcT1G+p0HVu3XeV/8bihYBS1pxW27++sLjVAh2Ud8J9nLcnDPwR22DM3zu9qK4XyIEszm4rgVsrn4saoGaQd0fD5EadhB0vH0OexEye5iqWwfHrgNmrtY+lRtpAOZIEYbjSZRDPJWlYIpLsGWl5wT5GpDQBKrhsaEnLRsW7LJ5KekQkLbph3f7jz4qruxPgQyhhGQbcjLrD3xa1LJwJvp1W+mV5vzW7KtZ/ObLyWXymeSSgZqT/y6IS8TvykqGxMbTufUn86pak3G572kGQSx2EZf/PUXTRJiKpFy+olitCpMBowZ0s/vX6joUBpuv3/xwmUh3Xwab5tDRmJ1Qdvoixffv1iKHRkzmC5r/tQ58JOa0XbpmlXBScaMZQOyjdnxPzY1taanF5nNmkdrevqPTU0bs+PB1IJ0kx9PHS5O00yX1Rk0z6hLYZ3xA6ZZfMVPltn6pU3E3YCszNZO+YzuJt5WSViNUhrlMJrGrBaUjuDtwwvSTeEAZHRTS7w7uO3wXbqzeBCBzKbaJpzuL+6rqlBPpANZVnXj9+d6rlUnqAdpQ4rl/HtdL870/zg28HKktkE3tEUX5pZO1tuubckr8pMe1MYE8YxgHX3kdJyoXRnbNrZ3/Tg2QI8f+iy4X14uiQajUFSw6VqDdbIiuzAGl9KTFsRkS+d/9g9dLS5sSE1K1lPExzxhBGSV7R8Vd92jNJb61p4tx/63sOOr/OZLmw++svzzVXq+uOteZftH+K1RfzqnpCi2qCC28UwuPu8lrR7SKOJMD7n+ZNcsbhmaUnOPZk5PJ/F4yZghDauj4y9+Ycwgjb6YmkZApgkr6pO0LfV5xjbGDOZqID+lHvXqrIExY0mzdVZLs2HZmYJjFUWfvvVWkdl8uaJid37+bE3NWElJXWrqlxs33t60aZsEap++9dZYRREu6MdTh4vTNNNldQbNM0wp6dF1/ZEg/c0wtXe5HDmaFno5WWbr39VWLFGXG5DhItVtB2QIK9y6AznSLJXtu3a3Vwe1a/qBDFsY0jQgjroVDGTqqz6dYVrx20MG9UQ6kGVsqn82uuNfN5mZAVgQTW29PS+P2QbLcxuKcxuKUlL0AZmQmVN+pb76WG58/MoQD9MR9U+h5vSsc/796pUxLyEti+hZnHtyXz8DZF4u0V4I8YlZx2qtVzZmZvpmvCBWVA29entrmVqNIJ0JIyDbcvAPKeXvUvCqPvLntMr9NB2XZSvaMROXZXszvTql/N0tB/+AXz0N5/Lpz8axPHzeS5oZ0mhO5iSNEpJooOJ5gjMQIqShIiYeR09ifxtmC0oGuCCpTXIjEQPu9tJ/sfF77/4yPVQ1rgAZ9ecx0EbcCe6wCIjJnKc1Q7hTblGKPyqW946/+IV2anrISJvDOhSkm9Q9clWIQpnqvtA45s+K0462+OepY9AiqAFN6LRKyValaYkXIHtaZ+3IzCwym39qafmX4uKmtDSn1bpgtbZlZBwtKHhqsxWZzR2ZmU/rrPim+PHUWYam5Eflbi+1lv6ELuOTEBFW7mPv9F9/+fNf5qaVW+MqRXh9FGLBoAO2NtzSSwIZ9YQxBOa9lK99tKSljBwjPgt6vByygIdscEg+j2OUJGQp5SH/16z1uBQ0TZ1btw+3Hr2z6Hj63PH0+cUuo2Xz/ttO8hM7vQrSTT3jch67c/yo4q+ypLVedC5SfxhUCwkMZAxCQYgTt0LzuxqSQpzUSGoesWq8lRoDHjLNUtQGS9c4LWgfb2XqiXQg8zQeC2LCnvf6n72T5SmD5nlBNKUdtVnHC+P9jaxpVhvck8KmEzPObw5V+cY0QbZBNO0cZIGMNiF4vkT8ZKYky8WGrUcyDfr4WKmzsHzg1Tt1W4LbC1RbGAGZ7eQ/4rIb3kyv/o2lY8v7/0dpjPk3LrvBdvIf8IYqSDc1jhEgaxzLYw6ch0kz7CW/a0jgUvY04AwkrTAZAzfbzk+N22hshQAT5Sr1iAhsQVEGWA23IpMKGap7pxUzyKufWDW1Nw0BmTt4QdeUkVt28oGpzHkZp1CPyNCOgAxoiQIo7TvtFMQfmR795W9/p4BI23LroCpkiasCI+XuI7CAJuT8iiaerKLZkCWuO8LIDorRxB+bmysTE4vM5j+1tpYmJBSZzedLSz8qKysym0sSEn5qaSkymysTE//Y3IwL+vrUSfdRfrosQ6P0sVE9AJqPE0ExeAI1hQLBqYWkWpXs2PgVT3tBKwxhUtrlSPNSyu8eqT1kP44NXLPS/9SWa+f6n3Sm0MoByCwlVU/OdYyUSHmsVTRB8yjRxrtHN5OrFJIoIcmXJPqRAcg53iN5+yjl2CktdY1jomL65QnIwE1FG4UaKIpRvKOoB9PRcBE1kFGUlKLGBBBpKYks5a5ZuvZDH6nlkQtkabXbgOvt7RkwuAoGY2xMTFxM8oH9/c+258aRdEycyaiHAARjZsmN+vJmNqZWe9phnxysGZi4MeuYffDV2aHqBIUnhIaxeefkjprhi3fmv/lm7trYcEWSjEqCGJNdf+jCja+/nnfcuzk5XJcTLZUSzJ3jC99NdLtsTui8NL8w2WLWxVhCxfvTztn95W6Zo2MSYuPcjxi2FyARJJq6e17uLmtsbHx0uufFifZPGzKTlH619/W9HNxgogarGMsLdXm5RNs1tmy03ShPNbrZDyZpJgQxqXD7q97Wds2rwTi56oGMvrMYGvPuLWMGQvllqgAZi0SEkOQwIgYI5l0JdVIywGMksAVDBlCEVgXjKHbnYI8ardOTDQx4MY2CE4XJJvMZBjJlLGdccbhdtnKlCIML2Kf4l7/9HTRR6MQlLFNQtkqqFgOcQqiuqC5YxWRTcsoMhCVlbhwGMjqH7GxJydmSEpr+U2urJpDRSvQ/dWAnbp15ADQvMYzLCEV7zbhLSVsIbXG1YZJWo5U0zZ9M6t+1c2uZEpRUzyHbhSKYQemLGsjADVaQbsJXXUBmrX95rn5QMRKbwVAX9Y2Bu8uiwBZzXuYhf4FMIi2ZkwChYM4Z+L1kVlO+A/AOZJqlwH7cZagncoHMlJwmxc42XDjW7wZkWVWPzrl8sLJPVd8cMiGvYNPtmnwLywoEyO7evTC6e1tj2/YjV2ecj0/a5FlrEpDdv3JupKdlW1PPh5fnFqdP1BoljjGWHfrSMX/5+K7mxvae4zdnHdN7SggkCWJy58S3Tz7eHi/jTvy280+fTHQD5HknDKHk0B3ng+Fil5GCmNA5ITt+XT7Yie5Yha48VUiA7P2Oa30VXRWW3Tvavz/XfaEklmYOHZAJBRuqb9fk5brs92QePp/f8WqgY2fQv95QmggjIPMvZEnfDvqHRmZIg5cLDJkQWoKIksvvovJOQYCM8TMBfGC20AlkilfMCGiIIQ/sBMtpAjIrLOKiFjLwKx4mdXHAAtyK9GZ3AyZckAEy3FmoTdYZsRo2mOqGHTm4IBZNp1VMNkWEpYEMQpaUvYrMZjWQqUOWtC/6nzrKVZhKNZ9DrcfJ7S4wpWiv1wCQwbMhsdoBmLwPoDa452BbJfttJpTyO4GRC0KWUBu+6gKyNOI5+3FsAJxnkJ8CGXihmPgjAA0koCBgjfoS5KHcBpVDyBLCiDACgn8Le9R8AjJoBZei3cFffeKrkQtkdCgVxIR9B9yBzJRQbsncYskfPdy/2F+6haQzt+Qn6cEdoWjDltubs9NYViBAdu+D8mhyXhCz+68szhzfKhtAPGT3h4vlrx2L992zTx3ZIJHQ5uOP7ZcHU2Xqyuq77CqV3H15Yf7jplipQlPTyOPvJnakKXCwxIeTwob9Xzqn3y1wGSmIxuTC6soq96MwY0l8IUB2Yku13K/UE8f6f9cpB3lDCGRp+Rtvby3Q8cGEIJoMxsRoU3JM8ts17/53W3WxTol8zxZGQObfpH76wtI/NDJDGrzvAAgwecBVmsCX6BALSOEqjsKLtJQnfIEiNBv5iXxC00NGyIBpQ3EvyaFJsBDbxrimKFl6crBpthJqIJMjjwjXwAxGNNx3L1Yx2fQDGUzqn6upoV6xAxbLAYuFpulJ9aR+aqRPTx0xSZpGBnCMu+z5cYosICMqeZi8L7Hask7q1wQyeuvpNLKXSuxSPplWfPSOHOCTnlW3CWEAW5CgpTDW4LAgXIUEBiwMZBCjhJw0gfPjVpi0OmSpCWS0TjnA6nSFZSM9ZCnzkArI4Pzwvv5vFbzQOUILxZ6B7FIvIF3TuWf2jzpoDFTykF1qk9BKNBgTOyfnZk5vFqMF0dzxyeLDU40QSbSemrd/soN6rYSMXZ85HKfqiMPMsHXkoeN6t4oCPdks5A9fd97Z5aOHSbM2AmR7SmiYUhBjeob6/0P5cDLEQFZbgDx8mrZJ7Fu9eferXUd/Gjj0b9tsLTFLOfw81aPjPAEygdw1PQe7ufj69bC/uLguih5CaflG5r2g86d/y17Qyn0aGvFAKL9lpJUv5IlQKM1YjqEHpzHkqcnAVyBTaiNfVipzs1xzyLD3CJsHragNkCuU5o2peY4URCFLcHdRRADvC+4vtMX4/BTL5TnmRGeEXGCtbMMQWW0E6mduCjTBdMeTVTQbbo4xGPoFZtCEf8te0LI+PXW0CO4O7jK2FsvI9BdfohWqo7GeZKf5w+FfdcgSW+UJyOgXmjhn4GmMXDo9ZNAo/SwA+8n0esjINH9XkNEtZCkhHY4YQnMePWTSRwMQGPWUn4Ew8MnR/IB3TCtMKZoZdxPq4R4y1kNGR19BTAgykE32mBUgaDz7zH6hU54QJs0ha4lx+asUA5K7JlVhRKUSQczpv7o4c8IqitFVx2btV97NVCpfkh6E7MEvnF/2Zbm1GMAcsmIKmszcrxADmU4PWaI505qRU59V8mHzez/YijOXFMffDGEEZAXppmVbGBZPsqF+CzxgExqAae9pvdPKjBw8akpUoQCTxHBQJxkRoTh1iihcgodPXJs80CrZZH8JVOLudZOvKpllRIPMymQ4/GoGa2VwUXoke6qWEcgwOXkhEv+AzBVclmb+wT3FsmNZaHqoKOv3jQ2aS5G1pqf/vrFhqChLXcqnM5ahKYWtXR4v/ADADVJ8e0DJrvy0RVyKet3gwaMZvHfWJ7NDlJkBMhKXVKaO0Ril/JVlWkZ9mzylzBOlBWihxX1CGLMOGcY1V8jSWo9n/V+zyt9Rkg8qdXrIKHUp07ksXeO379ylfiZyQyXAgp+UkGBOGPiuGIQCJxkJLCo1e/GQMV46pjZoBQOZpWucmoFDsVAPB7KgApmlsPr2lrw8N9YRDUYSsmQ8ZOffRh6ySS0gkzxkYwNukcQNGfBtQe7Qbfv9D8rF8v13F68OFfpLEiS+GdAcst3aQNba2/dyqEj250nOs9/35oORDL3BeckYjx9g0mxCXsHm2zV5+azIuBJ1Or/jVX9n95JBWHVBfWfCC8gok9We+LX4nemU8t1x2fVx2fUp5buL35muPfFrWU13gO9fWpyJ6AE84cphNg++yoyFUM/PL0b3nv8exkXKHLDGAbAF40+CbNSvwzg28LBKcwJeSNEQ4jPDs9ygddKcwlvQI4xB0C5dOgGoiGmF8c3gvnvqEeO/AX1kKaR5bKQssKOETThQC6s5QBM6rVKyudbswN4yLCZoghOh3joJaw73EU7CAyALhR4n5i7gW6/opv4sV545hzsYVmkGyEinKtsH95Bl+tmV+slSZNJk/2CvQEYFgcUv8LIXoJU2kKH1Mqh7DCbp6wQy6SaS4CYsIQF+JsUq11WYEMb4rjBC0UtybcrHm0x+jFbYAOqNw7V5wjjaO9oKEBuc5EAWVCCLzym/VV9Sy27Oo55D9uB4DR3p6VeWaiATDcbNxx8/udgFTJNatKWqIBX4QCjcd9M5vbtpz3X3CWGQQX8ioDlkHoCsvKXz5fubK+gEOEPayeP9j1qQ8aKxs7/vhwEL8CVYK3i+RPMYbOW1t6oy4nwAMkGML+x61df+DrQS7IR+IHtDEL2FLKMCDlnCe5BvLg5S6Ey4hnaFdXQWXDPZFCCr8rtHq3dzcYzyS6Kn3/rwgqFTgAGy0DUUupojFMgE0ZiVI634Wky+snw2UEpXKy1RVo7wM2QpxmWP1NeeyqHLPcCoT4BsauqjM7u3NbV1SV9ZfmjFX1lqeMhEg1H6yvKbiYO9TfXb2ocu3FpwXkTrogli2b6pxes3v1qYOlyoO15JTDLnV1RvyklYYu4/GO8lIS17oe0hM2RVfH2m5+vuss7ygr09Hf9+pm1fpluLhQ3tP5zadrQyT1I+ewNaR9fLJUGMyzpdbx3JYxT2YqTkdcsv63u1vcHqPVsAVwMCsiitOWRFJW8VZMWF7n8+r5kroFYgcCBT17laztC+/3y3V9M5ulp6Ecl2ciBzG2L9G89iyjv8KxhIKUGM6XuXXdvix7GByQrZ7+IfkJEp9qVF1bdsFTuTow0uFw4BsonBmsHJm7POuRmyDlmiglBePGTyOmQ3Z2fnHTNTV0/2uVYvo30vP/TQ8fT5V4eqfJIir+/q3ILj04ENPpXSzOwFyATRlFOy8YtD25+PdDsO1h8uNtM5c1CPYEod7Gv/3Ugf2ZnqXPdooUsuT5cEQ2zCzk21t2osJb49eIJYWTX0qr2mFFoPdiJoQAYespzcgsJceTXFSH7J8r4vpwKRDGTLqTNvKxQKcCDzbVzUHAVXBMg0LQnKSUE0xjaUVd+orzlflqFsLk6AbLKHLhsWlFYisBIhJ7t4zGq9UVNcb/Z1KpggZhXv/J/enhNpCanRRjagHLCYhMZ0f2XJxCvfWC8Y0FeWBgXIxOTUzCJLdiheW7xOrgBXgCvAFQhDBSI0ZBnwGLwEiRoyU7MHS7OVtbIokMFXlqFufU3WLxTlFQ3mJWf6iVOGrMPNe/5r19Gfuhvrg61PUIFsvbzyRXT0myWllYVZ5jB8a3CTuAJcAa4AVyDoCnAgWwKtgjJ4cyALiowBViIYU81p1SlJyQHWoyoeEiBbFyX8JinNUljym6RUfnAFuAJcAa7AmleAA9lyAJlqCOeNriUFAgQyErXE8/oharkuSsjJK7AUlqSkZq75NxHvIFeAK8AViHAFOJCtJTLgfVkRBXwCsuj1gsY0MgRkhiglarkuSlgXJSYmpReXVubkFaRn5ialZkT4C4t3nyvAFeAKrFUFOJCtyBDOG11LCgQByNzm9buATCRMtk54IzomOTUzO9dSVPJWaflGfnAFuAJcAa7A2lOAA9laIgPelxVRIPhAhqOW66KE19fBsf71deR47fWQHlGvvc6PiFHgtajX+BExCvzTa1H8CFsFIgvIsn/bxKdzcQWCrUDQgQxHLSUnmeQnU7BMZjJKZtr/vr7+9QCOENOed5SMGAziyMsV8E+BiGHHCPw7gQPZivhUeKNrSQHfgEy1dRKdUobn9RMgc59JJtDYpcJkgjaHSc6zFb4UAAgGApG0bGAoyVmQK8AV4AqspAIcyNYSGfC+rIgCwQEy9lvL9SIKXKr9ZBDEDEVChxMuHOBPbcPK4WBgLOjdaxjOV1dy9OKBda7AGlOAA9mKDOG80bWkgM9ApuUkM7BL9rs5yRQgI99dhoLAgljnqoU5Nd6tljMrh6EBOjUjlWLDmbC5bSupAAeytUQGvC8rooCvQBatBWSqPZTIjuMkcIn8ZFLgUmIyaUUMjz9RZDOIpLUqquI4yBUIewVWLUAHyN+8+JIKcCBbkSGcN7qWFAgekLmtEKsAmRuTubnKvGOZ/1fXkbU2/DsimAUDAdawZ4jV4izkdnIFVrMCHMiWjwwE0RhtivV1Y+xgfxK4fP2NGMuDCWTuC5LRmf7YSSbvdOk/bOlwsK1k5f6CoH/4iEtFMEpyHOQKcAXCQgEOZMsHKGmdn845HeOd2UEhFUHMrR3c316eEJTaeCUBKBAsIJOiloJBxWRM4BKYzEvCYzRzJWGLs6AH3IxgFgzErcjLcgX0K7CCvKXfSIED2fIBWWr7xw/mH51tzwxg7HdZK4hbjs8uXurJCEptvJLAFCBMJoj6D/XuSXBGDWRe/GRemGylLnEWXHYFPHAe9v+FZ5qTKFeAK4AV4EDmQpzAhuTlrocDWTjdL5+BzMO8fk9OMtd8snVRK0Vayzbv2RcAAATNSURBVNPustNMmPvtuHleFFi1JLqCfIyHf54ONwU4kC0HSKX0fOF4+pweU4c2YpKoPe2wTw7VDl26NeeYfXDnzGB1ghhNMwjReQ2HP70543ji+HbuwVdje6wp0iXBduaxcxEqpAn7tT1Z9KohY/PQ+c/uPp6bd9y788Xxd8rjlAq9tSXGZta+d/bqzMxjx4Op6yf7NiUqpQQxJrv+0IUbX38977h3c3K4LidauYQ7wqSjYxJi49yPmBgmj/qnZOFgzcDEjVnH7IOvzg4hNRrG5p2TO2qGL96Z/+abuWtjwxVJilAeLBTMneML3010u5yICZ2X5hcmW8xQMLbivdtzC45r723S0ym1wcoZX6OWbywBZBqBS5efDH13uTyQxFvRowBHSa4AV4ArEJACHMiWA8iMWZVba+u21nZ9+NWiBpDdnR4/O9zS1NZz6tac8/FJmzwtLHXH548Xpk/1ttXWNjQPXLhtd461p4gGo5BSbm1ormvYe/HR4vUPt9eRdHPdpoIYiZNSt3/++PHtE32ddXXNbYMXbi3MHa+Jp9xAcMdDW9HFB67bnddHhlsaWzqGJ6YcjovvyHPdjGWHvnTMXz6+q7mxvef4zVnH9J6SJdBKEBM6J1TIONEduxTJSRbevTC6e1tj2/YjV2eQGgIBsvtXzo30tGxr6vnw8tzi9Ilao1ShJwsFMblz4tsnH2+Pl7IJYvy280+fTHS7kFeMrxt54nj6/MHpRtNStinspfnA+Apknla+UDxkEpCpJpO5/GRRUWSmf4iOte6E00NXy5wnoJc4nxfIFeAKrA0FOJBpjq8hOSmIubuuaQHZ/ZOVRuKzEQxl+6YW7x2roWP/5uOP7Z/tSpJhwpxb3VyzgQAZPTyFLKPjkpMS4gymeMlBldd/eXHqsOyTI7jjoa2KI7P2WwcLDJIZYmzt6Xn7pV4KLsSMy4OpshlZfZcXZ45vBTM0E4JoTC6srqxyPwozlvzClFh474PyaGpGdv8VV1sUyIaL5e4X77tnnzqyQbLKi4XJ3ZcX5j9uipUqNDWNPP5uYkcatlmITkzLzY6XWsTnfUwHEcjcmCyKrEbGHNIcf7pEmad/A2M1DmQRpgDHQa4AVyAsFOBAFhL20hzOPQLZpT6KPoIY3/HJ4pMzLbR46o7Pn8xPjw73bKuvKclLpd4gqNkTkAkp1r2TM3MOl4Nq7nQDLUVwR6stQTQ2jy3ax95WA5Mgmjs+WXx4qhHij9ZT8/ZPdizp6wI7fUpIFsogKBqMTeee2T/qMFAWJB6yS20SWokGY2Ln5NzM6c1kHr03C4WMXZ85HKfqiEvPsHXkoeN6dxqBsxAcQZxGpjAZi2KYzHRgmSdcC+n5wFgwQJ9fhIHUMrvxQtFcWIyCa8O5wnuxBhTgQBaKsVm7To9ANtljlv1Pce0XF+fPtlJcEIy59fvGP/1y9uuF7+zO72ZvjNgyXDChCWSCmNg8Zrc/uDTYVCs5qOoOXF10AzKttgQxpuXCov18uxpTBDG5a9LFdvJ8NaUSdX44E8AcMlkN0WBsPPvMfqGTzu6SPGSTLTEuBWSVvFooiDn9VxdnTlhFMbrq2Kz9yruZktRgZ/ASwQWyJZksXIEsQNpbOZ7jMMcV4AqEWAHO30so8P8feTACMy0WqwAAAABJRU5ErkJggg==;" vertex="1" parent="1">
          <mxGeometry x="10" y="560" width="506" height="174.25" as="geometry" />
        </mxCell>
        <mxCell id="Sv0Y8UL7mLzFVeA9ChIz-14" value="&lt;div style=&quot;background-color:#1e1f22;color:#bcbec4&quot;&gt;&lt;pre style=&quot;font-family:&#39;JetBrains Mono&#39;,monospace;font-size:11.3pt;&quot;&gt;DefaultMQPullConsumerImpl&lt;/pre&gt;&lt;/div&gt;" style="text;whiteSpace=wrap;html=1;" vertex="1" parent="1">
          <mxGeometry x="25" y="350" width="230" height="70" as="geometry" />
        </mxCell>
        <mxCell id="Sv0Y8UL7mLzFVeA9ChIz-15" value="&lt;div style=&quot;background-color:#1e1f22;color:#bcbec4&quot;&gt;&lt;pre style=&quot;font-family:&#39;JetBrains Mono&#39;,monospace;font-size:11.3pt;&quot;&gt;DefaultLitePullConsumerImpl&lt;/pre&gt;&lt;/div&gt;" style="text;whiteSpace=wrap;html=1;" vertex="1" parent="1">
          <mxGeometry x="25" y="450" width="250" height="70" as="geometry" />
        </mxCell>
      </root>
    </mxGraphModel>
  </diagram>
</mxfile>
